ply
format ascii 1.0
element vertex 228
property float x
property float y
property float z
element face 607
property list uchar int vertex_indices
end_header
144.746612548828125 -19.6090526580810547 -37.0174522399902344
140.425643920898438 -11.9890527725219727 -32.36456298828125
136.581588745117188 -19.6090507507324219 -23.6714382171630859
122.133941650390625 -19.6090488433837891 -5.05372858047485352
124.75238037109375 -5.63904953002929688 -11.9804534912109375
71.0330886840820312 -19.6090526580810547 47.8032035827636719
100.326812744140625 -19.6090507507324219 18.5030479431152344
104.212425231933594 -14.2790498733520508 12.9015121459960938
70.9532241821289062 -1.31904935836791992 41.6284751892089844
102.855331420898438 -5.63905000686645508 11.0745019912719727
32.7068138122558594 -19.6090507507324219 75.6475448608398438
32.5038337707519531 2.74094510078430176 70.257415771484375
-7.45326709747314453 -20.0168914794921875 96.355865478515625
-7.23023462295532227 -11.8868923187255859 96.2680740356445312
-9.26653099060058594 4.62310647964477539 81.1546173095703125
104.225669860839844 2.74094748497009277 4.37350654602050781
87.9982223510742188 13.16094970703125 6.01749849319458008
62.2190170288085938 10.3609504699707031 29.0111312866210938
28.6586151123046875 12.3909492492675781 51.8576812744140625
-11.4680109024047852 15.7931079864501953 63.664459228515625
107.456329345703125 12.1409492492675781 -9.11631488800048828
97.1880111694335938 16.9709510803222656 -8.8050689697265625
113.689834594726562 7.82095003128051758 -17.4692802429199219
126.661231994628906 1.22095131874084473 -37.1107978820800781
138.124221801757812 -9.4490509033203125 -53.6343612670898438
104.695289611816406 11.380946159362793 -15.8429031372070312
93.1807327270507812 16.2009506225585938 -18.1503429412841797
138.519989013671875 -5.63904953002929688 -61.4494857788085938
157.58856201171875 -12.2390518188476562 -95.871917724609375
152.182052612304688 -12.2390518188476562 -97.2213897705078125
130.051666259765625 -4.61905288696289062 -69.7245941162109375
145.546493530273438 -19.6090507507324219 -64.0107498168945312
163.184005737304688 -19.6090507507324219 -99.2108917236328125
161.663589477539062 -15.5490493774414062 -100.480636596679688
143.197723388671875 -14.5290489196777344 -61.2587814331054688
106.155845642089844 11.1209487915039062 -22.0411262512207031
112.007354736328125 10.8709487915039062 -31.0971851348876953
110.505935668945312 11.1209487915039062 -33.6713027954101562
122.937667846679688 6.81094789505004883 -40.563720703125
118.742271423339844 6.3009490966796875 -45.2211685180664062
125.624900817871094 -3.34904861450195312 -72.7960128784179688
145.75421142578125 -11.2290496826171875 -97.0855178833007812
110.301933288574219 6.3009490966796875 -54.8021163940429688
104.26611328125 14.9309511184692383 -38.2235298156738281
9.26205635070800781 19.9944019317626953 -25.5056381225585938
11.0981264114379883 19.4825973510742188 -26.7515430450439453
100.217216491699219 15.190948486328125 -32.0646400451660156
99.83612060546875 14.9309501647949219 -22.7071514129638672
84.4465255737304688 19.0009498596191406 -30.7676849365234375
141.506820678710938 -8.68905258178710938 -99.1628952026367188
123.225318908691406 -1.31905007362365723 -77.52447509765625
10.0145540237426758 19.7825965881347656 -26.0002098083496094
98.9630661010742188 -2.5890495777130127 -80.3624420166015625
65.6409530639648438 2.74094724655151367 -64.7944793701171875
116.075775146484375 -9.4490509033203125 -84.2393417358398438
122.089462280273438 -2.3390505313873291 -80.936767578125
41.4426918029785156 23.5709495544433594 -38.7326736450195312
37.9378166198730469 15.4409475326538086 -48.1696014404296875
80.3766555786132812 20.7809486389160156 -28.9949226379394531
43.8303985595703125 29.6709518432617188 -8.44379711151123047
78.5413742065429688 20.5209445953369141 -10.5949525833129883
79.841888427734375 16.9709510803222656 2.32985424995422363
51.2809867858886719 23.0609474182128906 14.2118206024169922
22.0006675720214844 26.6209564208984375 29.31268310546875
5.77637529373168945 31.440948486328125 6.68895101547241211
-41.4811325073242188 30.5022373199462891 19.2560615539550781
-42.1597938537597656 30.713348388671875 18.0862979888916016
4.19800615310668945 21.5409507751464844 -26.3170909881591797
-49.4048919677734375 20.5661277770996094 -14.2171049118041992
12.8986740112304688 54.0509567260742188 -44.7616729736328125
13.3896112442016602 51.760955810546875 -46.7506103515625
-7.67727279663085938 44.91094970703125 -32.8840065002441406
-32.1245994567871094 57.6109542846679688 -38.0509300231933594
-18.487213134765625 61.16094970703125 -42.8005905151367188
1.59001040458679199 60.4009552001953125 -45.300018310546875
-48.2615623474121094 -20.3366508483886719 -29.9681205749511719
-1.10400128364562988 -19.6090507507324219 -41.3637275695800781
60.691864013671875 -19.6090507507324219 -66.4807205200195312
27.7142810821533203 -19.6090507507324219 -53.2819595336914062
90.7205352783203125 -19.6090507507324219 -81.7173919677734375
112.959487915039062 -19.6090507507324219 -85.7387847900390625
138.465988159179688 -11.7390527725219727 -101.702194213867188
135.248870849609375 -19.6090507507324219 -102.411087036132812
150.453704833984375 -15.0390510559082031 -111.105445861816406
152.2916259765625 -19.6090507507324219 -113.754806518554688
158.762359619140625 -19.6090507507324219 -105.118377685546875
158.215576171875 -15.7990484237670898 -105.273544311523438
155.56024169921875 -14.7790489196777344 -109.955848693847656
157.1751708984375 -19.6090507507324219 -111.03033447265625
0.848222315311431885 58.6209526062011719 -47.0368080139160156
-18.8461322784423828 59.6409568786621094 -43.5836753845214844
103.213081359863281 -19.6090488433837891 15.9179439544677734
140.425643920898438 -27.2290496826171875 -32.36456298828125
124.75238037109375 -33.5790481567382812 -11.9804534912109375
104.212425231933594 -24.9390487670898438 12.9015121459960938
102.855331420898438 -33.5790481567382812 11.0745019912719727
70.9532241821289062 -37.8990516662597656 41.6284751892089844
32.5038337707519531 -41.95904541015625 70.257415771484375
-7.23023462295532227 -28.1468944549560547 96.2680740356445312
-9.26653099060058594 -44.6568946838378906 81.1546173095703125
104.225669860839844 -41.9590492248535156 4.37350654602050781
87.9982223510742188 -52.3790512084960938 6.01749849319458008
62.2190170288085938 -49.5790481567382812 29.0111312866210938
28.6586151123046875 -51.6090507507324219 51.8576812744140625
-11.4680109024047852 -55.8268966674804688 63.664459228515625
97.1880035400390625 -56.189056396484375 -8.80506515502929688
107.456329345703125 -51.3590507507324219 -9.11631488800048828
113.689834594726562 -47.0390510559082031 -17.4692802429199219
126.661231994628906 -40.4390487670898438 -37.1107978820800781
138.124221801757812 -29.7690505981445312 -53.6343612670898438
93.1807327270507812 -55.4190521240234375 -18.1503429412841797
104.695289611816406 -50.5990486145019531 -15.8429031372070312
138.519989013671875 -33.5790481567382812 -61.4494857788085938
152.182052612304688 -26.9790496826171875 -97.2213897705078125
157.58856201171875 -26.9790515899658203 -95.871917724609375
130.051666259765625 -34.5990524291992188 -69.7245941162109375
143.197723388671875 -24.6890487670898438 -61.2587814331054688
161.663589477539062 -23.6690483093261719 -100.480636596679688
106.155845642089844 -50.33905029296875 -22.0411262512207031
110.505935668945312 -50.33905029296875 -33.6713027954101562
112.007354736328125 -50.08905029296875 -31.0971851348876953
122.937667846679688 -46.0290489196777344 -40.563720703125
118.742271423339844 -45.5190505981445312 -45.2211685180664062
125.624893188476562 -35.869049072265625 -72.7960128784179688
145.75421142578125 -27.9890499114990234 -97.0855178833007812
110.301933288574219 -45.5190505981445312 -54.8021163940429688
104.26611328125 -54.1490516662597656 -38.2235298156738281
9.26205635070800781 -59.6106948852539062 -25.5056400299072266
11.0981264114379883 -59.0988883972167969 -26.7515449523925781
100.217216491699219 -54.4090499877929688 -32.0646400451660156
99.83612060546875 -54.1490516662597656 -22.7071552276611328
84.4465255737304688 -58.2190513610839844 -30.7676849365234375
141.506820678710938 -30.5290489196777344 -99.1628952026367188
123.225318908691406 -37.8990516662597656 -77.52447509765625
98.9630661010742188 -36.6290512084960938 -80.3624420166015625
10.0145549774169922 -59.3988876342773438 -26.0002117156982422
65.6409530639648438 -41.9590492248535156 -64.7944793701171875
116.075775146484375 -29.7690505981445312 -84.2393417358398438
122.089462280273438 -36.8790512084960938 -80.936767578125
41.4426918029785156 -62.7890510559082031 -38.7326736450195312
37.9378166198730469 -54.6590499877929688 -48.1696014404296875
80.3766555786132812 -59.9990501403808594 -28.9949226379394531
43.8303985595703125 -68.8890533447265625 -8.44379520416259766
78.5413742065429688 -59.7390518188476562 -10.5949516296386719
79.841888427734375 -56.1890525817871094 2.32985424995422363
51.2809867858886719 -62.2790489196777344 14.2118206024169922
22.0006675720214844 -65.83905029296875 29.31268310546875
5.77637481689453125 -70.6590499877929688 6.6889491081237793
-41.4811325073242188 -71.175537109375 19.2560615539550781
-42.1597938537597656 -71.3866500854492188 18.0862979888916016
4.19800662994384766 -60.7590522766113281 -26.3170948028564453
-49.4048919677734375 -61.2394294738769531 -14.2171049118041992
12.8986730575561523 -93.2690582275390625 -44.7616767883300781
13.3896112442016602 -90.9790573120117188 -46.7506103515625
-7.67727279663085938 -84.1290435791015625 -32.8840065002441406
-32.1245994567871094 -96.8290557861328125 -38.0509300231933594
1.59001040458679199 -99.619049072265625 -45.300018310546875
-18.487213134765625 -100.379043579101562 -42.8005905151367188
138.465988159179688 -27.4790496826171875 -101.702194213867188
150.453704833984375 -24.1790485382080078 -111.105445861816406
158.215576171875 -23.4190483093261719 -105.273544311523438
155.56024169921875 -24.4390487670898438 -109.955848693847656
-18.8461322784423828 -98.8590545654296875 -43.5836753845214844
0.848222315311431885 -97.83905029296875 -47.0368080139160156
-188.0323486328125 -20.3909492492675781 12.0598278045654297
-176.69134521484375 -20.3909492492675781 22.8378276824951172
-157.9173583984375 -20.3909492492675781 37.0818252563476562
-162.239349365234375 -34.3609504699707031 31.0688228607177734
-94.877349853515625 -20.3909492492675781 74.9118270874023438
-130.75634765625 -20.3909492492675781 54.1918258666992188
-135.9593505859375 -25.7209510803222656 49.7868270874023438
-96.398345947265625 -38.6809501647949219 68.9268264770507812
-135.121368408203125 -34.3609504699707031 47.6708297729492188
-138.179351806640625 -42.7409477233886719 41.5528335571289062
-91.22735595703125 -50.3609504699707031 54.4788284301757812
-215.66937255859375 -27.7609481811523438 -41.4654769897460938
-210.796356201171875 -27.7609481811523438 -44.16827392578125
-195.791351318359375 -20.3909492492675781 -13.8066730499267578
-221.9383544921875 -20.3909492492675781 -43.2424774169921875
-220.798370361328125 -24.4509506225585938 -44.8624725341796875
-204.5523681640625 -28.7709503173828125 -45.7006759643554688
-200.98736572265625 -31.3109474182128906 -48.8065719604492188
-83.15936279296875 -69.6709518432617188 13.5408229827880859
-84.49237060546875 -63.0609474182128906 37.3528213500976562
-62.6813697814941406 -94.0509567260742188 -29.5452747344970703
-63.6703529357910156 -91.760955810546875 -31.3393726348876953
-39.7323646545410156 -84.91094970703125 -23.3977756500244141
-17.4553565979003906 -97.6109542846679688 -34.7160720825195312
-31.8573646545410156 -101.16094970703125 -35.7742767333984375
-51.8973731994628906 -100.400955200195312 -32.9921722412109375
-79.197357177734375 -20.3909492492675781 -33.940673828125
-198.707366943359375 -28.2609481811523438 -52.0463714599609375
-195.783355712890625 -20.3909492492675781 -53.5637741088867188
-212.720367431640625 -24.9609489440917969 -58.0265731811523438
-215.181365966796875 -20.3909492492675781 -60.1099700927734375
-219.19635009765625 -20.3909492492675781 -50.0930709838867188
-218.708343505859375 -24.2009506225585938 -50.3844757080078125
-217.3553466796875 -25.2209510803222656 -55.5944747924804688
-219.193359375 -20.3909492492675781 -56.2143707275390625
-51.6303749084472656 -98.6209564208984375 -34.8617706298828125
-31.7133522033691406 -99.6409530639648438 -36.6235733032226562
-134.213348388671875 -20.3909492492675781 52.4418258666992188
-162.239349365234375 -6.42094993591308594 31.0688228607177734
-135.9593505859375 -15.0609502792358398 49.7868270874023438
-135.121368408203125 -6.42094993591308594 47.6708297729492188
-96.398345947265625 -2.10094904899597168 68.9268264770507812
-138.179351806640625 1.95905005931854248 41.5528335571289062
-91.22735595703125 9.57904911041259766 54.4788284301757812
-185.936370849609375 -10.2309503555297852 -5.70487403869628906
-210.796356201171875 -13.0209512710571289 -44.16827392578125
-215.66937255859375 -13.0209512710571289 -41.4654769897460938
-192.81036376953125 -15.3109502792358398 -11.7563724517822266
-220.798370361328125 -16.3309516906738281 -44.8624725341796875
-204.5523681640625 -12.0109491348266602 -45.7006759643554688
-200.98736572265625 -9.47095012664794922 -48.8065719604492188
-84.49237060546875 22.2790489196777344 37.3528213500976562
-62.6813697814941406 53.2690544128417969 -29.5452747344970703
-63.6703529357910156 50.9790534973144531 -31.3393726348876953
-39.7323646545410156 44.1290473937988281 -23.3977756500244141
-17.4553565979003906 56.8290519714355469 -34.7160720825195312
-51.8973731994628906 59.6190528869628906 -32.9921722412109375
-31.8573646545410156 60.3790473937988281 -35.7742767333984375
-198.707366943359375 -12.5209512710571289 -52.0463714599609375
-212.720367431640625 -15.8209514617919922 -58.0265731811523438
-218.708343505859375 -16.5809516906738281 -50.3844757080078125
-217.3553466796875 -15.5609502792358398 -55.5944747924804688
-31.7133522033691406 58.8590507507324219 -36.6235733032226562
-51.6303749084472656 57.8390541076660156 -34.8617706298828125
3 0 1 2
3 3 2 1
3 1 4 3
3 5 6 7
3 7 8 5
3 8 7 9
3 10 5 8
3 8 11 10
3 12 10 11
3 11 13 12
3 14 13 11
3 9 4 15
3 9 15 16
3 9 16 17
3 17 8 9
3 11 8 17
3 17 18 11
3 14 11 18
3 18 19 14
3 20 21 16
3 16 15 20
3 22 20 15
3 15 4 22
3 23 22 4
3 4 1 23
3 24 23 1
3 25 26 21
3 21 20 25
3 22 25 20
3 24 27 23
3 28 29 30
3 30 27 28
3 31 32 33
3 33 34 31
3 34 24 1
3 1 0 34
3 31 34 0
3 35 22 36
3 36 37 35
3 22 23 38
3 38 36 22
3 37 36 38
3 38 39 37
3 39 38 27
3 27 30 39
3 40 30 29
3 29 41 40
3 39 30 40
3 40 42 39
3 43 37 39
3 44 43 42
3 42 45 44
3 27 24 34
3 35 37 46
3 47 35 46
3 26 47 46
3 48 26 46
3 43 48 46
3 37 43 46
3 41 49 50
3 50 40 41
3 40 50 45
3 45 42 40
3 51 45 52
3 52 44 51
3 44 52 53
3 54 52 45
3 45 55 54
3 56 44 53
3 53 57 56
3 58 44 56
3 56 59 58
3 58 48 44
3 26 48 58
3 58 60 26
3 16 21 26
3 26 61 16
3 61 26 60
3 62 60 58
3 58 59 62
3 63 62 59
3 59 64 63
3 65 63 64
3 64 66 65
3 61 60 62
3 17 61 62
3 16 61 17
3 18 17 62
3 62 63 18
3 19 18 63
3 63 65 19
3 64 59 56
3 56 67 64
3 66 64 67
3 67 68 66
3 69 56 57
3 57 70 69
3 67 56 69
3 69 71 67
3 72 71 69
3 69 73 72
3 73 69 74
3 75 68 67
3 67 76 75
3 57 53 77
3 77 78 57
3 67 57 78
3 78 76 67
3 53 52 79
3 79 77 53
3 52 54 80
3 80 79 52
3 54 81 82
3 82 80 54
3 54 55 81
3 83 84 82
3 82 81 83
3 28 27 34
3 34 33 28
3 85 86 33
3 33 32 85
3 28 33 86
3 86 29 28
3 45 50 55
3 49 81 55
3 55 50 49
3 81 49 83
3 87 83 49
3 49 41 87
3 86 87 41
3 41 29 86
3 84 83 87
3 87 88 84
3 86 85 88
3 88 87 86
3 25 22 35
3 47 26 25
3 44 48 43
3 27 38 23
3 35 47 25
3 89 90 73
3 73 74 89
3 74 69 70
3 70 89 74
3 72 73 90
3 71 70 57
3 57 67 71
3 72 90 89
3 89 71 72
3 71 89 70
3 6 91 7
3 4 7 91
3 91 3 4
3 4 9 7
3 2 92 0
3 2 3 93
3 93 92 2
3 94 6 5
3 5 95 94
3 95 5 96
3 5 10 97
3 97 96 5
3 10 12 98
3 98 97 10
3 97 98 99
3 100 93 95
3 101 100 95
3 101 95 96
3 96 102 101
3 96 97 103
3 103 102 96
3 97 99 104
3 104 103 97
3 105 106 100
3 100 101 105
3 106 107 93
3 93 100 106
3 93 107 108
3 108 92 93
3 92 108 109
3 110 111 106
3 106 105 110
3 106 111 107
3 108 112 109
3 113 114 112
3 112 115 113
3 32 31 116
3 116 117 32
3 109 116 0
3 0 92 109
3 0 116 31
3 107 118 119
3 119 120 107
3 108 107 120
3 120 121 108
3 120 119 122
3 122 121 120
3 121 122 115
3 115 112 121
3 115 123 124
3 124 113 115
3 115 122 125
3 125 123 115
3 122 119 126
3 126 127 128
3 128 125 126
3 116 109 112
3 129 119 118
3 129 118 130
3 129 130 110
3 129 110 131
3 129 131 126
3 129 126 119
3 132 124 123
3 123 133 132
3 133 123 125
3 125 128 133
3 134 128 135
3 135 136 134
3 136 135 127
3 134 137 138
3 138 128 134
3 127 139 140
3 140 136 127
3 127 141 142
3 142 139 127
3 127 131 141
3 131 110 143
3 143 141 131
3 110 105 101
3 101 143 110
3 143 101 144
3 143 145 142
3 142 141 143
3 145 146 147
3 147 142 145
3 146 148 149
3 149 147 146
3 145 143 144
3 145 144 102
3 102 144 101
3 102 103 146
3 146 145 102
3 103 104 148
3 148 146 103
3 142 147 150
3 150 139 142
3 147 149 151
3 151 150 147
3 139 152 153
3 153 140 139
3 139 150 154
3 154 152 139
3 152 154 155
3 155 156 152
3 156 155 157
3 151 75 76
3 76 150 151
3 136 140 78
3 78 77 136
3 140 150 76
3 76 78 140
3 134 136 77
3 77 79 134
3 137 134 79
3 79 80 137
3 158 137 80
3 80 82 158
3 158 138 137
3 84 159 158
3 158 82 84
3 112 114 117
3 117 116 112
3 160 85 32
3 32 117 160
3 117 114 113
3 113 160 117
3 138 133 128
3 158 132 133
3 133 138 158
3 159 132 158
3 159 161 124
3 124 132 159
3 161 160 113
3 113 124 161
3 159 84 88
3 88 161 159
3 85 160 161
3 161 88 85
3 118 107 111
3 111 110 130
3 126 131 127
3 108 121 112
3 111 130 118
3 162 163 156
3 156 157 162
3 152 156 163
3 163 153 152
3 162 157 155
3 153 154 150
3 150 140 153
3 163 162 155
3 155 153 163
3 153 155 154
3 94 91 6
3 94 93 3
3 3 91 94
3 94 95 93
3 126 125 122
3 39 42 43
3 164 151 165
3 166 165 151
3 151 167 166
3 168 169 170
3 170 171 168
3 171 170 172
3 12 168 171
3 171 99 12
3 12 12 99
3 99 98 12
3 99 98 99
3 172 167 173
3 172 173 149
3 172 149 174
3 174 171 172
3 99 171 174
3 174 104 99
3 99 99 104
3 104 104 99
3 149 149 149
3 149 173 149
3 151 149 173
3 173 167 151
3 151 151 167
3 167 151 151
3 75 151 151
3 151 151 149
3 149 149 151
3 151 151 149
3 75 151 151
3 175 176 75
3 75 151 175
3 177 178 179
3 179 75 177
3 75 75 151
3 151 164 75
3 177 75 164
3 151 151 151
3 151 151 151
3 151 151 151
3 151 151 151
3 151 151 151
3 151 151 151
3 151 151 151
3 151 75 151
3 75 75 176
3 176 180 75
3 151 75 75
3 75 151 151
3 151 151 151
3 151 151 151
3 151 151 151
3 151 75 75
3 151 151 151
3 151 151 151
3 151 151 151
3 151 151 151
3 151 151 151
3 151 151 151
3 180 181 75
3 75 75 180
3 75 75 151
3 151 151 75
3 151 151 75
3 75 151 151
3 151 75 75
3 75 75 151
3 151 75 75
3 151 151 75
3 75 151 151
3 151 151 151
3 151 182 151
3 151 151 151
3 151 151 151
3 151 149 151
3 149 149 151
3 151 149 149
3 149 151 149
3 183 149 151
3 151 182 183
3 148 183 182
3 182 149 148
3 149 149 183
3 174 149 183
3 149 149 174
3 104 174 183
3 183 148 104
3 104 104 148
3 148 146 104
3 149 182 151
3 151 151 149
3 184 151 151
3 151 185 184
3 151 151 184
3 184 186 151
3 187 186 184
3 184 188 187
3 188 184 189
3 151 75 75
3 75 190 151
3 151 151 190
3 190 75 151
3 75 75 75
3 75 75 75
3 75 75 75
3 75 75 75
3 75 191 192
3 192 75 75
3 75 75 191
3 193 194 192
3 192 191 193
3 175 151 75
3 75 179 175
3 195 196 179
3 179 178 195
3 175 179 196
3 196 176 175
3 151 75 75
3 181 191 75
3 75 75 181
3 191 181 193
3 197 193 181
3 181 180 197
3 196 197 180
3 180 176 196
3 194 193 197
3 197 198 194
3 196 195 198
3 198 197 196
3 151 151 151
3 151 151 151
3 151 151 151
3 151 151 151
3 151 151 151
3 199 200 188
3 188 189 199
3 189 184 185
3 185 199 189
3 187 188 200
3 186 185 151
3 151 151 186
3 187 200 199
3 199 186 187
3 186 199 185
3 169 201 170
3 167 170 201
3 201 166 167
3 167 172 170
3 165 68 164
3 165 166 202
3 202 68 165
3 203 169 168
3 168 204 203
3 204 168 205
3 168 12 14
3 14 205 168
3 12 12 13
3 13 14 12
3 14 13 14
3 206 202 204
3 66 206 204
3 66 204 205
3 205 207 66
3 205 14 19
3 19 207 205
3 14 14 19
3 19 19 14
3 66 66 206
3 206 66 66
3 66 68 202
3 202 206 66
3 202 68 68
3 68 68 202
3 68 68 208
3 68 68 66
3 66 66 68
3 66 68 68
3 68 68 208
3 209 210 68
3 68 75 209
3 178 177 211
3 211 212 178
3 208 211 164
3 164 68 208
3 164 211 177
3 68 68 68
3 68 68 68
3 68 68 68
3 68 68 68
3 68 68 68
3 68 68 68
3 68 68 75
3 75 68 68
3 75 75 213
3 213 209 75
3 75 68 68
3 68 75 75
3 68 68 68
3 68 68 68
3 68 68 68
3 211 208 68
3 68 68 68
3 68 68 68
3 68 68 68
3 68 68 68
3 68 68 68
3 68 68 68
3 214 213 75
3 75 75 214
3 75 75 68
3 68 68 75
3 75 68 68
3 68 75 75
3 75 68 68
3 75 75 75
3 75 68 75
3 68 68 68
3 68 75 68
3 68 68 66
3 66 68 68
3 68 68 68
3 68 68 66
3 66 68 68
3 68 66 66
3 66 66 68
3 66 66 66
3 66 215 66
3 66 68 66
3 215 65 66
3 66 66 215
3 215 66 66
3 215 66 207
3 207 66 66
3 207 19 65
3 65 215 207
3 19 19 63
3 66 66 68
3 68 68 66
3 68 216 217
3 217 68 68
3 68 68 218
3 218 216 68
3 216 218 219
3 219 220 216
3 220 219 221
3 75 68 190
3 190 75 75
3 68 68 75
3 75 190 68
3 75 75 75
3 75 75 75
3 75 75 75
3 75 75 75
3 222 75 75
3 75 192 222
3 222 75 75
3 194 223 222
3 222 192 194
3 68 210 212
3 212 211 68
3 224 195 178
3 178 212 224
3 212 210 209
3 209 224 212
3 75 75 68
3 222 214 75
3 75 75 222
3 223 214 222
3 223 225 213
3 213 214 223
3 225 224 209
3 209 213 225
3 223 194 198
3 198 225 223
3 195 224 225
3 225 198 195
3 68 68 68
3 68 68 68
3 68 68 68
3 68 68 68
3 68 68 68
3 226 227 220
3 220 221 226
3 216 220 227
3 227 217 216
3 226 221 219
3 217 218 68
3 68 68 217
3 227 226 219
3 219 217 227
3 217 219 218
3 203 201 169
3 203 202 166
3 166 201 203
3 203 204 202
3 68 68 68
3 151 151 151
