ply
format ascii 1.0
element vertex 228
property float x
property float y
property float z
element face 484
property list uchar int vertex_indices
end_header
130.81732177734375 -19.6090507507324219 -52.9783210754394531
126.918319702148438 -11.9890518188476562 -47.9665336608886719
123.8465576171875 -19.6090507507324219 -38.9714584350585938
111.076507568359375 -19.6090507507324219 -19.1654014587402344
113.081283569335938 -5.63904953002929688 -26.2939834594726562
64.7769012451171875 -19.6090507507324219 37.9441261291503906
91.4054718017578125 -19.6090507507324219 6.20235252380371094
94.7881011962890625 -14.2790489196777344 0.283479958772659302
64.1591796875 -1.31904983520507812 31.7998542785644531
93.2769317626953125 -5.63904953002929688 -1.41830301284790039
29.0232582092285156 -19.6090507507324219 69.0228652954101562
28.3512725830078125 2.74094772338867188 63.6709365844726562
-8.29031848907470703 -19.989990234375 94.3813400268554688
-8.39525604248046875 -11.8599910736083984 94.5794830322265625
-11.0388069152832031 4.6500086784362793 79.52783203125
94.0580215454101562 2.74094772338867188 -8.21323013305664062
78.0356063842773438 13.16094970703125 -5.16118001937866211
54.3585281372070312 10.3609504699707031 19.99176025390625
22.9170417785644531 12.3909492492675781 45.6763572692871094
-14.1572170257568359 15.8200111389160156 62.2976875305175781
96.1006698608398438 12.1409492492675781 -21.93328857421875
85.8985595703125 16.9709510803222656 -20.7282810211181641
101.582450866699219 7.82094955444335938 -30.7977523803710938
112.792617797851562 1.22095108032226562 -51.4950637817382812
122.7718505859375 -9.4490509033203125 -68.954803466796875
92.7638702392578125 11.3809471130371094 -28.3936443328857422
81.0920333862304688 16.2009506225585938 -29.6887378692626953
122.4849853515625 -5.63904953002929688 -76.774688720703125
138.480880737304688 -12.2390518188476562 -112.728073120117188
132.977340698242188 -12.2390518188476562 -113.6011962890625
113.327667236328125 -4.61905288696289062 -84.2802505493164062
129.26153564453125 -19.6090507507324219 -79.9386215209960938
143.7640380859375 -19.6090507507324219 -116.542030334472656
142.13873291015625 -15.5490493774414062 -117.674430847167969
127.16156005859375 -14.5290489196777344 -76.9924087524414062
93.6786727905273438 11.1209487915039062 -34.6955757141113281
98.7186203002929688 10.8709487915039062 -44.2271690368652344
96.9985733032226562 11.1209487915039062 -46.6606254577636719
108.782279968261719 6.81094741821289062 -54.6103134155273438
104.196922302246094 6.3009490966796875 -58.8843879699707031
108.650047302246094 -3.34904861450195312 -86.9541549682617188
126.585800170898438 -11.2290496826171875 -112.905616760253906
94.9536666870117188 6.3009490966796875 -67.6932525634765625
90.3857421875 14.9309501647949219 -50.651702880859375
-8.15447711944580078 21.4999198913574219 -29.9633235931396484
-8.15447711944580078 21.4999198913574219 -29.9633235931396484
86.8890304565429688 15.190948486328125 -44.163360595703125
87.3249435424804688 14.9309501647949219 -34.8082656860351562
71.2913818359375 19.0009498596191406 -41.4968338012695312
122.173507690429688 -8.68905258178710938 -114.604896545410156
105.847496032714844 -1.31904983520507812 -91.4554977416992188
-8.15447711944580078 21.4999198913574219 -29.9633235931396484
81.4302215576171875 -2.58905029296875 -92.1680755615234375
49.5917434692382812 2.74094772338867188 -73.7551345825195312
98.1399078369140625 -9.4490509033203125 -97.5216751098632812
104.418563842773438 -2.33905029296875 -94.7558059692382812
27.7569999694824219 23.5709495544433594 -45.6834831237792969
23.4429817199707031 15.440948486328125 -54.7790298461914062
67.391510009765625 20.7809486389160156 -39.3761062622070312
32.7754745483398438 29.6709518432617188 -15.7179651260375977
67.1668853759765625 20.5209465026855469 -20.886199951171875
69.5889205932617188 16.9709510803222656 -8.12392044067382812
42.1722755432128906 23.0609474182128906 6.20207834243774414
14.3195037841796875 26.6209564208984375 23.7974262237548828
-3.81483697891235352 31.440948486328125 2.67382335662841797
-42.4853553771972656 30.6590499877929688 18.3088283538818359
-42.4853553771972656 30.6590499877929688 18.3088283538818359
-8.26386547088623047 21.5409507751464844 -30.0690574645996094
-49.5033607482910156 20.7590522766113281 -13.9810733795166016
-1.203857421875 54.0509567260742188 -49.2017707824707031
-0.888134956359863281 51.760955810546875 -51.225921630859375
-20.6662998199462891 44.91094970703125 -35.57598876953125
-45.4709281921386719 57.6109542846679688 -38.5925178527832031
-32.2993927001953125 61.16094970703125 -44.5126838684082031
-12.5164079666137695 60.4009552001953125 -48.7524490356445312
-48.2763710021972656 -20.3909492492675781 -29.8872699737548828
-14.8570985794067383 -19.6090507507324219 -44.5963401794433594
44.5145225524902344 -19.6090507507324219 -75.0036163330078125
12.8127784729003906 -19.6090507507324219 -58.98089599609375
73.1009521484375 -19.6090507507324219 -92.799468994140625
94.9048080444335938 -19.6090507507324219 -98.7438278198242188
118.922927856445312 -11.7390518188476562 -116.8695068359375
115.656288146972656 -19.6090507507324219 -117.295333862304688
130.045501708984375 -15.0390510559082031 -127.281784057617188
131.645523071289062 -19.6090507507324219 -130.081253051757812
138.8443603515625 -19.6090507507324219 -122.041664123535156
138.286117553710938 -15.7990493774414062 -122.148582458496094
135.2327880859375 -14.7790489196777344 -126.581626892089844
136.747940063476562 -19.6090507507324219 -127.792778015136719
-13.4067459106445312 58.6209564208984375 -50.4179763793945312
-32.7251968383789062 59.6409530639648438 -45.261505126953125
94.055450439453125 -19.6090507507324219 3.37552809715270996
126.918319702148438 -27.2290496826171875 -47.9665336608886719
113.081283569335938 -33.5790481567382812 -26.2939834594726562
94.7881011962890625 -24.9390487670898438 0.283479958772659302
93.2769317626953125 -33.5790481567382812 -1.41830301284790039
64.1591796875 -37.8990516662597656 31.7998542785644531
28.3512725830078125 -41.9590492248535156 63.6709365844726562
-8.39525604248046875 -28.1199913024902344 94.5794830322265625
-11.0388069152832031 -44.6299858093261719 79.52783203125
94.0580215454101562 -41.9590492248535156 -8.21323013305664062
78.0356063842773438 -52.3790512084960938 -5.16118001937866211
54.3585281372070312 -49.5790481567382812 19.99176025390625
22.9170417785644531 -51.6090469360351562 45.6763572692871094
-14.1572170257568359 -55.7999916076660156 62.2976875305175781
85.8985595703125 -56.189056396484375 -20.7282810211181641
96.1006698608398438 -51.3590469360351562 -21.93328857421875
101.582450866699219 -47.0390472412109375 -30.7977523803710938
112.792617797851562 -40.4390487670898438 -51.4950637817382812
122.7718505859375 -29.7690505981445312 -68.954803466796875
81.0920333862304688 -55.4190521240234375 -29.6887378692626953
92.7638702392578125 -50.5990524291992188 -28.3936443328857422
122.4849853515625 -33.5790481567382812 -76.774688720703125
132.977340698242188 -26.9790496826171875 -113.6011962890625
138.480880737304688 -26.9790496826171875 -112.728073120117188
113.327667236328125 -34.5990486145019531 -84.2802505493164062
127.16156005859375 -24.6890487670898438 -76.9924087524414062
142.13873291015625 -23.6690483093261719 -117.674430847167969
93.6786727905273438 -50.33905029296875 -34.6955757141113281
96.9985733032226562 -50.33905029296875 -46.6606254577636719
98.7186203002929688 -50.08905029296875 -44.2271690368652344
108.782279968261719 -46.029052734375 -54.6103134155273438
104.196922302246094 -45.5190505981445312 -58.8843879699707031
108.650047302246094 -35.869049072265625 -86.9541549682617188
126.585800170898438 -27.9890518188476562 -112.905616760253906
94.9536666870117188 -45.5190505981445312 -67.6932525634765625
90.3857421875 -54.1490478515625 -50.651702880859375
-8.15447711944580078 -60.7327957153320312 -29.9633235931396484
-8.15447711944580078 -60.7327957153320312 -29.9633235931396484
86.8890304565429688 -54.4090499877929688 -44.163360595703125
87.3249435424804688 -54.1490478515625 -34.8082656860351562
71.2913818359375 -58.21905517578125 -41.4968338012695312
122.173507690429688 -30.5290489196777344 -114.604896545410156
105.847496032714844 -37.8990516662597656 -91.4554977416992188
81.4302215576171875 -36.6290512084960938 -92.1680755615234375
-8.15447711944580078 -60.7327957153320312 -29.9633235931396484
49.5917434692382812 -41.9590492248535156 -73.7551345825195312
98.1399078369140625 -29.7690505981445312 -97.5216751098632812
104.418563842773438 -36.8790512084960938 -94.7558059692382812
27.7569999694824219 -62.7890472412109375 -45.6834831237792969
23.4429817199707031 -54.6590499877929688 -54.7790298461914062
67.391510009765625 -59.999053955078125 -39.3761062622070312
32.7754745483398438 -68.8890533447265625 -15.7179651260375977
67.1668853759765625 -59.7390518188476562 -20.886199951171875
69.5889205932617188 -56.189056396484375 -8.12392044067382812
42.1722755432128906 -62.279052734375 6.20207834243774414
14.3195037841796875 -65.83905029296875 23.7974262237548828
-3.81483697891235352 -70.6590499877929688 2.67382335662841797
-42.4853553771972656 -71.440948486328125 18.3088283538818359
-42.4853553771972656 -71.440948486328125 18.3088283538818359
-8.26386547088623047 -60.7590484619140625 -30.0690574645996094
-49.5033607482910156 -61.5409507751464844 -13.9810733795166016
-1.203857421875 -93.2690582275390625 -49.2017707824707031
-0.888134956359863281 -90.9790496826171875 -51.225921630859375
-20.6662998199462891 -84.1290435791015625 -35.57598876953125
-45.4709281921386719 -96.8290557861328125 -38.5925178527832031
-12.5164079666137695 -99.619049072265625 -48.7524490356445312
-32.2993927001953125 -100.379043579101562 -44.5126838684082031
118.922927856445312 -27.4790496826171875 -116.8695068359375
130.045501708984375 -24.179046630859375 -127.281784057617188
138.286117553710938 -23.4190483093261719 -122.148582458496094
135.2327880859375 -24.4390487670898438 -126.581626892089844
-32.7251968383789062 -98.8590545654296875 -45.261505126953125
-13.4067459106445312 -97.83905029296875 -50.4179763793945312
-188.0323486328125 -20.3909492492675781 12.0598278045654297
-176.69134521484375 -20.3909492492675781 22.8378276824951172
-157.9173583984375 -20.3909492492675781 37.0818252563476562
-162.239349365234375 -34.3609504699707031 31.0688228607177734
-94.877349853515625 -20.3909492492675781 74.9118270874023438
-130.75634765625 -20.3909492492675781 54.1918258666992188
-135.9593505859375 -25.7209510803222656 49.7868270874023438
-96.398345947265625 -38.6809501647949219 68.9268264770507812
-135.121368408203125 -34.3609504699707031 47.6708297729492188
-138.179351806640625 -42.7409477233886719 41.5528335571289062
-91.22735595703125 -50.3609504699707031 54.4788284301757812
-215.66937255859375 -27.7609481811523438 -41.4654769897460938
-210.796356201171875 -27.7609481811523438 -44.16827392578125
-195.791351318359375 -20.3909492492675781 -13.8066730499267578
-221.9383544921875 -20.3909492492675781 -43.2424774169921875
-220.798370361328125 -24.4509506225585938 -44.8624725341796875
-204.5523681640625 -28.7709503173828125 -45.7006759643554688
-200.98736572265625 -31.3109474182128906 -48.8065719604492188
-83.15936279296875 -69.6709518432617188 13.5408229827880859
-84.49237060546875 -63.0609474182128906 37.3528213500976562
-62.6813697814941406 -94.0509567260742188 -29.5452747344970703
-63.6703529357910156 -91.760955810546875 -31.3393726348876953
-39.7323646545410156 -84.91094970703125 -23.3977756500244141
-17.4553565979003906 -97.6109542846679688 -34.7160720825195312
-31.8573646545410156 -101.16094970703125 -35.7742767333984375
-51.8973731994628906 -100.400955200195312 -32.9921722412109375
-79.197357177734375 -20.3909492492675781 -33.940673828125
-198.707366943359375 -28.2609481811523438 -52.0463714599609375
-195.783355712890625 -20.3909492492675781 -53.5637741088867188
-212.720367431640625 -24.9609489440917969 -58.0265731811523438
-215.181365966796875 -20.3909492492675781 -60.1099700927734375
-219.19635009765625 -20.3909492492675781 -50.0930709838867188
-218.708343505859375 -24.2009506225585938 -50.3844757080078125
-217.3553466796875 -25.2209510803222656 -55.5944747924804688
-219.193359375 -20.3909492492675781 -56.2143707275390625
-51.6303749084472656 -98.6209564208984375 -34.8617706298828125
-31.7133522033691406 -99.6409530639648438 -36.6235733032226562
-134.213348388671875 -20.3909492492675781 52.4418258666992188
-162.239349365234375 -6.42094993591308594 31.0688228607177734
-135.9593505859375 -15.0609502792358398 49.7868270874023438
-135.121368408203125 -6.42094993591308594 47.6708297729492188
-96.398345947265625 -2.10094904899597168 68.9268264770507812
-138.179351806640625 1.95905005931854248 41.5528335571289062
-91.22735595703125 9.57904911041259766 54.4788284301757812
-185.936370849609375 -10.2309503555297852 -5.70487403869628906
-210.796356201171875 -13.0209512710571289 -44.16827392578125
-215.66937255859375 -13.0209512710571289 -41.4654769897460938
-192.81036376953125 -15.3109502792358398 -11.7563724517822266
-220.798370361328125 -16.3309516906738281 -44.8624725341796875
-204.5523681640625 -12.0109491348266602 -45.7006759643554688
-200.98736572265625 -9.47095012664794922 -48.8065719604492188
-84.49237060546875 22.2790489196777344 37.3528213500976562
-62.6813697814941406 53.2690544128417969 -29.5452747344970703
-63.6703529357910156 50.9790534973144531 -31.3393726348876953
-39.7323646545410156 44.1290473937988281 -23.3977756500244141
-17.4553565979003906 56.8290519714355469 -34.7160720825195312
-51.8973731994628906 59.6190528869628906 -32.9921722412109375
-31.8573646545410156 60.3790473937988281 -35.7742767333984375
-198.707366943359375 -12.5209512710571289 -52.0463714599609375
-212.720367431640625 -15.8209514617919922 -58.0265731811523438
-218.708343505859375 -16.5809516906738281 -50.3844757080078125
-217.3553466796875 -15.5609502792358398 -55.5944747924804688
-31.7133522033691406 58.8590507507324219 -36.6235733032226562
-51.6303749084472656 57.8390541076660156 -34.8617706298828125
3 0 1 2
3 3 2 1
3 1 4 3
3 5 6 7
3 7 8 5
3 8 7 9
3 10 5 8
3 8 11 10
3 12 10 11
3 11 13 12
3 14 13 11
3 9 4 15
3 9 15 16
3 9 16 17
3 17 8 9
3 11 8 17
3 17 18 11
3 14 11 18
3 18 19 14
3 20 21 16
3 16 15 20
3 22 20 15
3 15 4 22
3 23 22 4
3 4 1 23
3 24 23 1
3 25 26 21
3 21 20 25
3 22 25 20
3 24 27 23
3 28 29 30
3 30 27 28
3 31 32 33
3 33 34 31
3 34 24 1
3 1 0 34
3 31 34 0
3 35 22 36
3 36 37 35
3 22 23 38
3 38 36 22
3 37 36 38
3 38 39 37
3 39 38 27
3 27 30 39
3 40 30 29
3 29 41 40
3 39 30 40
3 40 42 39
3 43 37 39
3 44 43 42
3 42 45 44
3 27 24 34
3 35 37 46
3 47 35 46
3 26 47 46
3 48 26 46
3 43 48 46
3 37 43 46
3 41 49 50
3 50 40 41
3 40 50 45
3 45 42 40
3 51 45 52
3 52 44 51
3 44 52 53
3 54 52 45
3 45 55 54
3 56 44 53
3 53 57 56
3 58 44 56
3 56 59 58
3 58 48 44
3 26 48 58
3 58 60 26
3 16 21 26
3 26 61 16
3 61 26 60
3 62 60 58
3 58 59 62
3 63 62 59
3 59 64 63
3 65 63 64
3 64 66 65
3 61 60 62
3 17 61 62
3 16 61 17
3 18 17 62
3 62 63 18
3 19 18 63
3 63 65 19
3 64 59 56
3 56 67 64
3 66 64 67
3 67 68 66
3 69 56 57
3 57 70 69
3 67 56 69
3 69 71 67
3 72 71 69
3 69 73 72
3 73 69 74
3 75 68 67
3 67 76 75
3 57 53 77
3 77 78 57
3 67 57 78
3 78 76 67
3 53 52 79
3 79 77 53
3 52 54 80
3 80 79 52
3 54 81 82
3 82 80 54
3 54 55 81
3 83 84 82
3 82 81 83
3 28 27 34
3 34 33 28
3 85 86 33
3 33 32 85
3 28 33 86
3 86 29 28
3 45 50 55
3 49 81 55
3 55 50 49
3 81 49 83
3 87 83 49
3 49 41 87
3 86 87 41
3 41 29 86
3 84 83 87
3 87 88 84
3 86 85 88
3 88 87 86
3 25 22 35
3 47 26 25
3 44 48 43
3 27 38 23
3 35 47 25
3 89 90 73
3 73 74 89
3 74 69 70
3 70 89 74
3 72 73 90
3 71 70 57
3 57 67 71
3 72 90 89
3 89 71 72
3 71 89 70
3 6 91 7
3 4 7 91
3 91 3 4
3 4 9 7
3 2 92 0
3 2 3 93
3 93 92 2
3 94 6 5
3 5 95 94
3 95 5 96
3 5 10 97
3 97 96 5
3 10 12 98
3 98 97 10
3 97 98 99
3 100 93 95
3 101 100 95
3 101 95 96
3 96 102 101
3 96 97 103
3 103 102 96
3 97 99 104
3 104 103 97
3 105 106 100
3 100 101 105
3 106 107 93
3 93 100 106
3 93 107 108
3 108 92 93
3 92 108 109
3 110 111 106
3 106 105 110
3 106 111 107
3 108 112 109
3 113 114 112
3 112 115 113
3 32 31 116
3 116 117 32
3 109 116 0
3 0 92 109
3 0 116 31
3 107 118 119
3 119 120 107
3 108 107 120
3 120 121 108
3 120 119 122
3 122 121 120
3 121 122 115
3 115 112 121
3 115 123 124
3 124 113 115
3 115 122 125
3 125 123 115
3 122 119 126
3 126 127 128
3 128 125 126
3 116 109 112
3 129 119 118
3 129 118 130
3 129 130 110
3 129 110 131
3 129 131 126
3 129 126 119
3 132 124 123
3 123 133 132
3 133 123 125
3 125 128 133
3 134 128 135
3 135 136 134
3 136 135 127
3 134 137 138
3 138 128 134
3 127 139 140
3 140 136 127
3 127 141 142
3 142 139 127
3 127 131 141
3 131 110 143
3 143 141 131
3 110 105 101
3 101 143 110
3 143 101 144
3 143 145 142
3 142 141 143
3 145 146 147
3 147 142 145
3 146 148 149
3 149 147 146
3 145 143 144
3 145 144 102
3 102 144 101
3 102 103 146
3 146 145 102
3 103 104 148
3 148 146 103
3 142 147 150
3 150 139 142
3 147 149 151
3 151 150 147
3 139 152 153
3 153 140 139
3 139 150 154
3 154 152 139
3 152 154 155
3 155 156 152
3 156 155 157
3 151 75 76
3 76 150 151
3 136 140 78
3 78 77 136
3 140 150 76
3 76 78 140
3 134 136 77
3 77 79 134
3 137 134 79
3 79 80 137
3 158 137 80
3 80 82 158
3 158 138 137
3 84 159 158
3 158 82 84
3 112 114 117
3 117 116 112
3 160 85 32
3 32 117 160
3 117 114 113
3 113 160 117
3 138 133 128
3 158 132 133
3 133 138 158
3 159 132 158
3 159 161 124
3 124 132 159
3 161 160 113
3 113 124 161
3 159 84 88
3 88 161 159
3 85 160 161
3 161 88 85
3 118 107 111
3 111 110 130
3 126 131 127
3 108 121 112
3 111 130 118
3 162 163 156
3 156 157 162
3 152 156 163
3 163 153 152
3 162 157 155
3 153 154 150
3 150 140 153
3 163 162 155
3 155 153 163
3 153 155 154
3 94 91 6
3 94 93 3
3 3 91 94
3 94 95 93
3 126 125 122
3 39 42 43
3 164 148 165
3 166 165 148
3 148 167 166
3 168 169 170
3 170 171 168
3 171 170 172
3 12 168 171
3 171 99 12
3 172 167 173
3 172 173 148
3 172 148 174
3 174 171 172
3 99 171 174
3 174 148 99
3 148 173 148
3 148 148 173
3 173 167 148
3 151 148 167
3 167 148 151
3 175 176 75
3 75 151 175
3 177 178 179
3 179 75 177
3 148 164 75
3 177 75 164
3 75 75 176
3 176 180 75
3 180 181 75
3 75 75 180
3 151 182 151
3 183 148 151
3 151 182 183
3 148 183 182
3 182 149 148
3 148 148 183
3 174 148 183
3 148 148 174
3 148 174 183
3 183 148 148
3 149 182 151
3 184 151 151
3 151 185 184
3 151 151 184
3 184 186 151
3 187 186 184
3 184 188 187
3 188 184 189
3 75 190 151
3 151 151 190
3 190 75 151
3 75 191 192
3 192 75 75
3 75 75 191
3 193 194 192
3 192 191 193
3 175 151 75
3 75 179 175
3 195 196 179
3 179 178 195
3 175 179 196
3 196 176 175
3 181 191 75
3 75 75 181
3 191 181 193
3 197 193 181
3 181 180 197
3 196 197 180
3 180 176 196
3 194 193 197
3 197 198 194
3 196 195 198
3 198 197 196
3 199 200 188
3 188 189 199
3 189 184 185
3 185 199 189
3 187 188 200
3 186 185 151
3 151 151 186
3 187 200 199
3 199 186 187
3 186 199 185
3 169 201 170
3 167 170 201
3 201 166 167
3 167 172 170
3 165 65 164
3 165 166 202
3 202 65 165
3 203 169 168
3 168 204 203
3 204 168 205
3 168 12 14
3 14 205 168
3 206 202 204
3 65 206 204
3 65 204 205
3 205 207 65
3 205 14 65
3 65 207 205
3 65 65 206
3 206 65 65
3 65 65 202
3 202 206 65
3 202 65 68
3 68 65 202
3 65 68 208
3 68 68 208
3 209 210 68
3 68 75 209
3 178 177 211
3 211 212 178
3 208 211 164
3 164 65 208
3 164 211 177
3 75 75 213
3 213 209 75
3 211 208 68
3 214 213 75
3 75 75 214
3 65 215 66
3 215 65 66
3 66 66 215
3 215 65 65
3 215 65 207
3 207 65 65
3 207 65 65
3 65 215 207
3 68 216 217
3 217 68 68
3 68 68 218
3 218 216 68
3 216 218 219
3 219 220 216
3 220 219 221
3 75 68 190
3 190 75 75
3 75 190 68
3 222 75 75
3 75 192 222
3 222 75 75
3 194 223 222
3 222 192 194
3 68 210 212
3 212 211 68
3 224 195 178
3 178 212 224
3 212 210 209
3 209 224 212
3 222 214 75
3 75 75 222
3 223 214 222
3 223 225 213
3 213 214 223
3 225 224 209
3 209 213 225
3 223 194 198
3 198 225 223
3 195 224 225
3 225 198 195
3 226 227 220
3 220 221 226
3 216 220 227
3 227 217 216
3 226 221 219
3 217 218 68
3 68 68 217
3 227 226 219
3 219 217 227
3 217 219 218
3 203 201 169
3 203 202 166
3 166 201 203
3 203 204 202
