ply
format ascii 1.0
element vertex 48
property float x
property float y
property float z
element face 114
property list uchar int vertex_indices
end_header
0.0241759996861219406 0.243304997682571411 -0.941381990909576416
0.449499011039733887 -0.0657069981098175049 -0.792035996913909912
-0.138279005885124207 -0.256691008806228638 -0.792035996913909912
0.747784018516540527 -0.282420992851257324 -0.388601005077362061
0.874823987483978271 0.243304997682571411 -0.467117995023727417
-0.501552999019622803 0.243304997682571411 -0.792033016681671143
-0.138279005885124207 0.743300020694732666 -0.792035996913909912
0.449499011039733887 0.552316009998321533 -0.792035996913909912
0.975233972072601318 -0.0657079964876174927 0.0586180016398429871
-0.87024998664855957 0.243304997682571411 -0.388597011566162109
-0.664013028144836426 -0.256691992282867432 -0.467117995023727417
-0.926882028579711914 -0.0657079964876174927 0.0586180016398429871
-0.252211987972259521 1.09395396709442139 -0.388601988554000854
-0.664013028144836426 0.743301987648010254 -0.467117995023727417
-0.563609004020690918 1.05232095718383789 0.0586180016398429871
0.747784018516540527 0.769029974937438965 -0.388601005077362061
0.287045001983642578 1.05231595039367676 -0.467119008302688599
0.611962020397186279 1.05232095718383789 0.0586180016398429871
0.836939632892608643 -0.775308489799499512 -0.121971189975738525
-0.926882028579711914 0.552317023277282715 0.0586180016398429871
0.0241759996861219406 1.24330401420593262 0.0586180016398429871
0.975233972072601318 0.552317023277282715 0.0586180016398429871
0.483104556798934937 -0.772795915603637695 0.75229191780090332
0.876724421977996826 -0.562961995601654053 0.456063032150268555
0.186632007360458374 -0.256691008806228638 0.909273028373718262
-0.699431002140045166 -0.282420992851257324 0.505837976932525635
-0.459388136863708496 -0.724293172359466553 0.771075665950775146
-0.401145994663238525 -0.0657069981098175049 0.90927201509475708
-0.699431002140045166 0.769029974937438965 0.505837976932525635
-0.826471984386444092 0.243304997682571411 0.584353983402252197
-0.401145994663238525 0.552316009998321533 0.90927201509475708
0.300563991069793701 1.09395396709442139 0.505837976932525635
-0.238692000508308411 1.05231595039367676 0.584356009960174561
0.186632007360458374 0.743300020694732666 0.909273028373718262
0.918603003025054932 0.243304997682571411 0.505833983421325684
0.712365984916687012 0.743301987648010254 0.584354996681213379
0.549906015396118164 0.243304997682571411 0.909269988536834717
0.0241759996861219406 0.243304997682571411 1.05861794948577881
-0.809418976306915283 -0.728657901287078857 0.261802941560745239
-0.456711828708648682 -0.784807503223419189 -0.611238360404968262
0.486907869577407837 -0.779670596122741699 -0.631243884563446045
0.436737000942230225 -1.13413798809051514 -0.219369992613792419
0.544333994388580322 -1.08139395713806152 0.313872992992401123
-0.0250569991767406464 -1.08897602558135986 -0.508167028427124023
-0.53291398286819458 -1.06804096698760986 -0.15658000111579895
0.00121500005479902029 -1.26558601856231689 0.0835219994187355042
-0.42727699875831604 -1.09851300716400146 0.378789007663726807
0.0364760011434555054 -1.06044900417327881 0.665459990501403809
3 0 1 2
3 3 1 4
3 0 2 5
3 0 5 6
3 0 6 7
3 3 4 8
3 9 10 11
3 12 13 14
3 15 16 17
3 3 8 18
3 9 11 19
3 12 14 20
3 15 17 21
3 22 23 24
3 25 26 27
3 28 29 30
3 31 32 33
3 34 35 36
3 36 33 37
3 36 35 33
3 35 31 33
3 33 30 37
3 33 32 30
3 32 28 30
3 30 27 37
3 30 29 27
3 29 25 27
3 27 24 37
3 27 26 24
3 26 22 24
3 24 36 37
3 24 23 36
3 23 34 36
3 21 35 34
3 21 17 35
3 17 31 35
3 20 32 31
3 20 14 32
3 14 28 32
3 19 29 28
3 19 11 29
3 11 25 29
3 38 26 25
3 18 8 23
3 8 34 23
3 17 20 31
3 17 16 20
3 16 12 20
3 14 19 28
3 14 13 19
3 13 9 19
3 11 38 25
3 11 10 38
3 10 39 38
3 40 3 18
3 8 21 34
3 8 4 21
3 4 15 21
3 7 16 15
3 7 6 16
3 6 12 16
3 6 13 12
3 6 5 13
3 5 9 13
3 5 10 9
3 5 2 10
3 2 39 10
3 4 7 15
3 4 1 7
3 1 0 7
3 2 40 39
3 2 1 40
3 1 3 40
3 5 0 10
3 1 7 3
3 8 4 34
3 41 18 42
3 39 43 44
3 41 42 45
3 39 44 10
3 28 19 30
3 22 36 24
3 46 47 26
3 38 46 26
3 26 47 24
3 47 22 24
3 36 36 37
3 33 28 30
3 30 25 27
3 30 19 25
3 19 11 25
3 10 44 38
3 44 46 38
3 45 47 46
3 45 42 47
3 42 22 47
3 23 36 22
3 34 36 36
3 44 45 46
3 44 43 45
3 43 41 45
3 42 23 22
3 42 18 23
3 34 4 35
3 4 15 35
3 9 10 10
3 10 39 10
3 2 43 39
3 2 40 43
3 40 41 43
3 40 18 41
3 3 7 4
3 10 0 2
3 7 6 15
