ply
format ascii 1.0
element vertex 164
property float x
property float y
property float z
element face 310
property list uchar int vertex_indices
end_header
-188.0323486328125 -20.3909492492675781 12.0598278045654297
-182.65435791015625 -28.0109481811523438 15.4358272552490234
-176.69134521484375 -20.3909492492675781 22.8378276824951172
-157.9173583984375 -20.3909492492675781 37.0818252563476562
-162.239349365234375 -34.3609504699707031 31.0688228607177734
-94.877349853515625 -20.3909492492675781 74.9118270874023438
-130.75634765625 -20.3909492492675781 54.1918258666992188
-135.9593505859375 -25.7209510803222656 49.7868270874023438
-96.398345947265625 -38.6809501647949219 68.9268264770507812
-135.121368408203125 -34.3609504699707031 47.6708297729492188
-50.6503639221191406 -20.3909492492675781 91.8878250122070312
-51.8493690490722656 -42.7409477233886719 86.6288223266601562
-10.1473731994628906 -20.3909492492675781 99.229827880859375
-4.81836318969726562 -28.5209503173828125 98.469818115234375
-7.86835098266601562 -45.0309486389160156 83.4898300170898438
-138.179351806640625 -42.7409477233886719 41.5528335571289062
-122.079345703125 -53.16094970703125 38.9408340454101562
-91.22735595703125 -50.3609504699707031 54.4788284301757812
-52.8973731994628906 -52.3909492492675781 67.8608322143554688
-7.86835098266601562 -56.2009506225585938 65.7098312377929688
-144.791351318359375 -52.1409492492675781 29.3588237762451172
-134.7923583984375 -56.9709510803222656 27.0018291473388672
-152.974365234375 -47.8209495544433594 22.9038295745849609
-170.587371826171875 -41.2209510803222656 7.28882408142089844
-185.936370849609375 -30.5509490966796875 -5.70487403869628906
-143.8653564453125 -51.3809471130371094 22.1468257904052734
-133.340362548828125 -56.2009506225585938 16.9378261566162109
-188.34136962890625 -34.3609504699707031 -13.1512699127197266
-215.66937255859375 -27.7609481811523438 -41.4654769897460938
-210.796356201171875 -27.7609481811523438 -44.16827392578125
-182.3033447265625 -35.3809471130371094 -23.3361759185791016
-195.791351318359375 -20.3909492492675781 -13.8066730499267578
-221.9383544921875 -20.3909492492675781 -43.2424774169921875
-220.798370361328125 -24.4509506225585938 -44.8624725341796875
-192.81036376953125 -25.4709510803222656 -11.7563724517822266
-146.88037109375 -51.1209487915039062 16.5378246307373047
-154.876373291015625 -50.8709487915039062 9.30482292175292969
-154.09234619140625 -51.1209487915039062 6.42982292175292969
-167.884368896484375 -46.8109474182128906 2.98982810974121094
-165.037353515625 -46.3009490966796875 -2.59477400779724121
-178.822357177734375 -36.6509513854980469 -27.4486713409423828
-204.5523681640625 -28.7709503173828125 -45.7006759643554688
-159.364349365234375 -46.3009490966796875 -14.0337772369384766
-149.24334716796875 -54.9309501647949219 0.417723000049591064
-127.113372802734375 -55.190948486328125 -9.31827735900878906
-157.29534912109375 -47.8209495544433594 -19.8049716949462891
-143.738372802734375 -55.190948486328125 5.31882286071777344
-140.9483642578125 -54.9309501647949219 14.2588253021240234
-128.16937255859375 -59.0009498596191406 2.48982810974121094
-200.98736572265625 -31.3109474182128906 -48.8065719604492188
-177.728363037109375 -38.6809501647949219 -32.6370697021484375
-139.423370361328125 -52.1409492492675781 -13.3928699493408203
-155.02734375 -37.41094970703125 -41.6578750610351562
-118.811370849609375 -42.7409477233886719 -35.2447738647460938
-172.56036376953125 -30.5509490966796875 -40.97357177734375
-177.514373779296875 -37.66094970703125 -36.2270736694335938
-88.692352294921875 -63.5709495544433594 -16.3339710235595703
-87.749359130859375 -55.440948486328125 -26.3564701080322266
-123.77935791015625 -60.7809486389160156 3.14882493019104004
-83.15936279296875 -69.6709518432617188 13.5408229827880859
-117.244354248046875 -60.5209465026855469 20.4468288421630859
-115.155364990234375 -56.9709510803222656 33.2678298950195312
-84.49237060546875 -63.0609474182128906 37.3528213500976562
-52.3013648986816406 -66.6209564208984375 44.3608322143554688
-42.4853553771972656 -71.440948486328125 18.3088283538818359
-3.29837393760681152 -68.4009552001953125 33.9598312377929688
1.78164303302764893 -71.440948486328125 15.1598262786865234
-49.5033607482910156 -61.5409507751464844 -13.9810733795166016
3.31164193153381348 -57.9809532165527344 -18.8803730010986328
-62.6813697814941406 -94.0509567260742188 -29.5452747344970703
-63.6703529357910156 -91.760955810546875 -31.3393726348876953
-39.7323646545410156 -84.91094970703125 -23.3977756500244141
-17.4553565979003906 -97.6109542846679688 -34.7160720825195312
-31.8573646545410156 -101.16094970703125 -35.7742767333984375
-51.8973731994628906 -100.400955200195312 -32.9921722412109375
-0.24835599958896637 -20.3909492492675781 -32.0803680419921875
-48.2763710021972656 -20.3909492492675781 -29.8872699737548828
-114.46734619140625 -20.3909492492675781 -38.1544723510742188
-79.197357177734375 -20.3909492492675781 -33.940673828125
-147.416351318359375 -20.3909492492675781 -45.0999755859375
-169.9383544921875 -20.3909492492675781 -43.2284774780273438
-198.707366943359375 -28.2609481811523438 -52.0463714599609375
-195.783355712890625 -20.3909492492675781 -53.5637741088867188
-212.720367431640625 -24.9609489440917969 -58.0265731811523438
-215.181365966796875 -20.3909492492675781 -60.1099700927734375
-219.19635009765625 -20.3909492492675781 -50.0930709838867188
-218.708343505859375 -24.2009506225585938 -50.3844757080078125
-217.3553466796875 -25.2209510803222656 -55.5944747924804688
-219.193359375 -20.3909492492675781 -56.2143707275390625
-51.6303749084472656 -98.6209564208984375 -34.8617706298828125
-31.7133522033691406 -99.6409530639648438 -36.6235733032226562
-134.213348388671875 -20.3909492492675781 52.4418258666992188
-182.65435791015625 -12.7709512710571289 15.4358272552490234
-162.239349365234375 -6.42094993591308594 31.0688228607177734
-135.9593505859375 -15.0609502792358398 49.7868270874023438
-135.121368408203125 -6.42094993591308594 47.6708297729492188
-96.398345947265625 -2.10094904899597168 68.9268264770507812
-51.8493690490722656 1.95905005931854248 86.6288223266601562
-4.81836318969726562 -12.2609491348266602 98.469818115234375
-7.86835098266601562 4.24904918670654297 83.4898300170898438
-138.179351806640625 1.95905005931854248 41.5528335571289062
-122.079345703125 12.3790502548217773 38.9408340454101562
-91.22735595703125 9.57904911041259766 54.4788284301757812
-52.8973731994628906 11.6090497970581055 67.8608322143554688
-7.86835098266601562 15.4190511703491211 65.7098312377929688
-134.7923583984375 16.1890525817871094 27.0018291473388672
-144.791351318359375 11.3590497970581055 29.3588237762451172
-152.974365234375 7.03905010223388672 22.9038295745849609
-170.587371826171875 0.439049988985061646 7.28882408142089844
-185.936370849609375 -10.2309503555297852 -5.70487403869628906
-133.340362548828125 15.4190511703491211 16.9378261566162109
-143.8653564453125 10.5990495681762695 22.1468257904052734
-188.34136962890625 -6.42094993591308594 -13.1512699127197266
-210.796356201171875 -13.0209512710571289 -44.16827392578125
-215.66937255859375 -13.0209512710571289 -41.4654769897460938
-182.3033447265625 -5.40094995498657227 -23.3361759185791016
-192.81036376953125 -15.3109502792358398 -11.7563724517822266
-220.798370361328125 -16.3309516906738281 -44.8624725341796875
-146.88037109375 10.3390493392944336 16.5378246307373047
-154.09234619140625 10.3390493392944336 6.42982292175292969
-154.876373291015625 10.0890493392944336 9.30482292175292969
-167.884368896484375 6.02904987335205078 2.98982810974121094
-165.037353515625 5.51905012130737305 -2.59477400779724121
-178.822357177734375 -4.13094997406005859 -27.4486713409423828
-204.5523681640625 -12.0109491348266602 -45.7006759643554688
-159.364349365234375 5.51905012130737305 -14.0337772369384766
-149.24334716796875 14.1490507125854492 0.417723000049591064
-127.113372802734375 14.4090490341186523 -9.31827735900878906
-157.29534912109375 7.03905010223388672 -19.8049716949462891
-143.738372802734375 14.4090490341186523 5.31882286071777344
-140.9483642578125 14.1490507125854492 14.2588253021240234
-128.16937255859375 18.2190513610839844 2.48982810974121094
-200.98736572265625 -9.47095012664794922 -48.8065719604492188
-177.728363037109375 -2.10094904899597168 -32.6370697021484375
-155.02734375 -3.37094998359680176 -41.6578750610351562
-139.423370361328125 11.3590497970581055 -13.3928699493408203
-118.811370849609375 1.95905005931854248 -35.2447738647460938
-172.56036376953125 -10.2309503555297852 -40.97357177734375
-177.514373779296875 -3.12094998359680176 -36.2270736694335938
-88.692352294921875 22.7890510559082031 -16.3339710235595703
-87.749359130859375 14.6590490341186523 -26.3564701080322266
-123.77935791015625 19.9990501403808594 3.14882493019104004
-83.15936279296875 28.8890495300292969 13.5408229827880859
-117.244354248046875 19.7390518188476562 20.4468288421630859
-115.155364990234375 16.1890525817871094 33.2678298950195312
-84.49237060546875 22.2790489196777344 37.3528213500976562
-52.3013648986816406 25.83905029296875 44.3608322143554688
-42.4853553771972656 30.6590499877929688 18.3088283538818359
-3.29837393760681152 27.619049072265625 33.9598312377929688
1.78164303302764893 30.6590499877929688 15.1598262786865234
-49.5033607482910156 20.7590522766113281 -13.9810733795166016
3.31164193153381348 17.1990509033203125 -18.8803730010986328
-62.6813697814941406 53.2690544128417969 -29.5452747344970703
-63.6703529357910156 50.9790534973144531 -31.3393726348876953
-39.7323646545410156 44.1290473937988281 -23.3977756500244141
-17.4553565979003906 56.8290519714355469 -34.7160720825195312
-51.8973731994628906 59.6190528869628906 -32.9921722412109375
-31.8573646545410156 60.3790473937988281 -35.7742767333984375
-198.707366943359375 -12.5209512710571289 -52.0463714599609375
-212.720367431640625 -15.8209514617919922 -58.0265731811523438
-218.708343505859375 -16.5809516906738281 -50.3844757080078125
-217.3553466796875 -15.5609502792358398 -55.5944747924804688
-31.7133522033691406 58.8590507507324219 -36.6235733032226562
-51.6303749084472656 57.8390541076660156 -34.8617706298828125
3 0 1 2
3 3 2 1
3 1 4 3
3 5 6 7
3 7 8 5
3 8 7 9
3 10 5 8
3 8 11 10
3 12 10 11
3 11 13 12
3 14 13 11
3 9 4 15
3 9 15 16
3 9 16 17
3 17 8 9
3 11 8 17
3 17 18 11
3 14 11 18
3 18 19 14
3 20 21 16
3 16 15 20
3 22 20 15
3 15 4 22
3 23 22 4
3 4 1 23
3 24 23 1
3 25 26 21
3 21 20 25
3 22 25 20
3 24 27 23
3 28 29 30
3 30 27 28
3 31 32 33
3 33 34 31
3 34 24 1
3 1 0 34
3 31 34 0
3 35 22 36
3 36 37 35
3 22 23 38
3 38 36 22
3 37 36 38
3 38 39 37
3 39 38 27
3 27 30 39
3 40 30 29
3 29 41 40
3 39 30 40
3 40 42 39
3 43 37 39
3 44 43 42
3 42 45 44
3 27 24 34
3 35 37 46
3 47 35 46
3 26 47 46
3 48 26 46
3 43 48 46
3 37 43 46
3 41 49 50
3 50 40 41
3 40 50 45
3 45 42 40
3 51 45 52
3 52 44 51
3 44 52 53
3 54 52 45
3 45 55 54
3 56 44 53
3 53 57 56
3 58 44 56
3 56 59 58
3 58 48 44
3 26 48 58
3 58 60 26
3 16 21 26
3 26 61 16
3 61 26 60
3 62 60 58
3 58 59 62
3 63 62 59
3 59 64 63
3 65 63 64
3 64 66 65
3 61 60 62
3 17 61 62
3 16 61 17
3 18 17 62
3 62 63 18
3 19 18 63
3 63 65 19
3 64 59 56
3 56 67 64
3 66 64 67
3 67 68 66
3 69 56 57
3 57 70 69
3 67 56 69
3 69 71 67
3 72 71 69
3 69 73 72
3 73 69 74
3 75 68 67
3 67 76 75
3 57 53 77
3 77 78 57
3 67 57 78
3 78 76 67
3 53 52 79
3 79 77 53
3 52 54 80
3 80 79 52
3 54 81 82
3 82 80 54
3 54 55 81
3 83 84 82
3 82 81 83
3 28 27 34
3 34 33 28
3 85 86 33
3 33 32 85
3 28 33 86
3 86 29 28
3 45 50 55
3 49 81 55
3 55 50 49
3 81 49 83
3 87 83 49
3 49 41 87
3 86 87 41
3 41 29 86
3 84 83 87
3 87 88 84
3 86 85 88
3 88 87 86
3 25 22 35
3 47 26 25
3 44 48 43
3 27 38 23
3 35 47 25
3 89 90 73
3 73 74 89
3 74 69 70
3 70 89 74
3 72 73 90
3 71 70 57
3 57 67 71
3 72 90 89
3 89 71 72
3 71 89 70
3 6 91 7
3 4 7 91
3 91 3 4
3 4 9 7
3 2 92 0
3 2 3 93
3 93 92 2
3 94 6 5
3 5 95 94
3 95 5 96
3 5 10 97
3 97 96 5
3 10 12 98
3 98 97 10
3 97 98 99
3 100 93 95
3 101 100 95
3 101 95 96
3 96 102 101
3 96 97 103
3 103 102 96
3 97 99 104
3 104 103 97
3 105 106 100
3 100 101 105
3 106 107 93
3 93 100 106
3 93 107 108
3 108 92 93
3 92 108 109
3 110 111 106
3 106 105 110
3 106 111 107
3 108 112 109
3 113 114 112
3 112 115 113
3 32 31 116
3 116 117 32
3 109 116 0
3 0 92 109
3 0 116 31
3 107 118 119
3 119 120 107
3 108 107 120
3 120 121 108
3 120 119 122
3 122 121 120
3 121 122 115
3 115 112 121
3 115 123 124
3 124 113 115
3 115 122 125
3 125 123 115
3 122 119 126
3 126 127 128
3 128 125 126
3 116 109 112
3 129 119 118
3 129 118 130
3 129 130 110
3 129 110 131
3 129 131 126
3 129 126 119
3 132 124 123
3 123 133 132
3 133 123 125
3 125 128 133
3 134 128 135
3 135 136 134
3 136 135 127
3 134 137 138
3 138 128 134
3 127 139 140
3 140 136 127
3 127 141 142
3 142 139 127
3 127 131 141
3 131 110 143
3 143 141 131
3 110 105 101
3 101 143 110
3 143 101 144
3 143 145 142
3 142 141 143
3 145 146 147
3 147 142 145
3 146 148 149
3 149 147 146
3 145 143 144
3 145 144 102
3 102 144 101
3 102 103 146
3 146 145 102
3 103 104 148
3 148 146 103
3 142 147 150
3 150 139 142
3 147 149 151
3 151 150 147
3 139 152 153
3 153 140 139
3 139 150 154
3 154 152 139
3 152 154 155
3 155 156 152
3 156 155 157
3 151 75 76
3 76 150 151
3 136 140 78
3 78 77 136
3 140 150 76
3 76 78 140
3 134 136 77
3 77 79 134
3 137 134 79
3 79 80 137
3 158 137 80
3 80 82 158
3 158 138 137
3 84 159 158
3 158 82 84
3 112 114 117
3 117 116 112
3 160 85 32
3 32 117 160
3 117 114 113
3 113 160 117
3 138 133 128
3 158 132 133
3 133 138 158
3 159 132 158
3 159 161 124
3 124 132 159
3 161 160 113
3 113 124 161
3 159 84 88
3 88 161 159
3 85 160 161
3 161 88 85
3 118 107 111
3 111 110 130
3 126 131 127
3 108 121 112
3 111 130 118
3 162 163 156
3 156 157 162
3 152 156 163
3 163 153 152
3 162 157 155
3 153 154 150
3 150 140 153
3 163 162 155
3 155 153 163
3 153 155 154
3 94 91 6
3 94 93 3
3 3 91 94
3 94 95 93
3 126 125 122
3 39 42 43
