ply
format ascii 1.0
element vertex 164
property float x
property float y
property float z
element face 310
property list uchar int vertex_indices
end_header
144.746612548828125 -19.6090526580810547 -37.0174522399902344
140.425643920898438 -11.9890527725219727 -32.36456298828125
136.581588745117188 -19.6090507507324219 -23.6714382171630859
122.133941650390625 -19.6090488433837891 -5.05372858047485352
124.75238037109375 -5.63904953002929688 -11.9804534912109375
71.0330886840820312 -19.6090526580810547 47.8032035827636719
100.326812744140625 -19.6090507507324219 18.5030479431152344
104.212425231933594 -14.2790498733520508 12.9015121459960938
70.9532241821289062 -1.31904935836791992 41.6284751892089844
102.855331420898438 -5.63905000686645508 11.0745019912719727
32.7068138122558594 -19.6090507507324219 75.6475448608398438
32.5038337707519531 2.74094510078430176 70.257415771484375
-4.51582145690917969 -19.6090488433837891 93.222320556640625
-9.85995388031005859 -11.4790487289428711 93.8674545288085938
-10.7909975051879883 5.03095006942749023 78.6084976196289062
104.225669860839844 2.74094748497009277 4.37350654602050781
87.9982223510742188 13.16094970703125 6.01749849319458008
62.2190170288085938 10.3609504699707031 29.0111312866210938
28.6586151123046875 12.3909492492675781 51.8576812744140625
-15.3928012847900391 16.2009487152099609 61.4343452453613281
107.456329345703125 12.1409492492675781 -9.11631488800048828
97.1880111694335938 16.9709510803222656 -8.8050689697265625
113.689834594726562 7.82095003128051758 -17.4692802429199219
126.661231994628906 1.22095131874084473 -37.1107978820800781
138.124221801757812 -9.4490509033203125 -53.6343612670898438
104.695289611816406 11.380946159362793 -15.8429031372070312
93.1807327270507812 16.2009506225585938 -18.1503429412841797
138.519989013671875 -5.63904953002929688 -61.4494857788085938
157.58856201171875 -12.2390518188476562 -95.871917724609375
152.182052612304688 -12.2390518188476562 -97.2213897705078125
130.051666259765625 -4.61905288696289062 -69.7245941162109375
145.546493530273438 -19.6090507507324219 -64.0107498168945312
163.184005737304688 -19.6090507507324219 -99.2108917236328125
161.663589477539062 -15.5490493774414062 -100.480636596679688
143.197723388671875 -14.5290489196777344 -61.2587814331054688
106.155845642089844 11.1209487915039062 -22.0411262512207031
112.007354736328125 10.8709487915039062 -31.0971851348876953
110.505935668945312 11.1209487915039062 -33.6713027954101562
122.937667846679688 6.81094789505004883 -40.563720703125
118.742271423339844 6.3009490966796875 -45.2211685180664062
125.624900817871094 -3.34904861450195312 -72.7960128784179688
145.75421142578125 -11.2290496826171875 -97.0855178833007812
110.301933288574219 6.3009490966796875 -54.8021163940429688
104.26611328125 14.9309511184692383 -38.2235298156738281
80.3703384399414062 15.190948486328125 -41.9001274108886719
106.809738159179688 7.82094955444335938 -59.8411636352539062
100.217216491699219 15.190948486328125 -32.0646400451660156
99.83612060546875 14.9309501647949219 -22.7071514129638672
84.4465255737304688 19.0009498596191406 -30.7676849365234375
141.506820678710938 -8.68905258178710938 -99.1628952026367188
123.225318908691406 -1.31905007362365723 -77.52447509765625
91.2063064575195312 12.1409502029418945 -49.0219459533691406
98.9630661010742188 -2.5890495777130127 -80.3624420166015625
65.6409530639648438 2.74094724655151367 -64.7944793701171875
116.075775146484375 -9.4490509033203125 -84.2393417358398438
122.089462280273438 -2.3390505313873291 -80.936767578125
41.4426918029785156 23.5709495544433594 -38.7326736450195312
37.9378166198730469 15.4409475326538086 -48.1696014404296875
80.3766555786132812 20.7809486389160156 -28.9949226379394531
43.8303985595703125 29.6709518432617188 -8.44379711151123047
78.5413742065429688 20.5209445953369141 -10.5949525833129883
79.841888427734375 16.9709510803222656 2.32985424995422363
51.2809867858886719 23.0609474182128906 14.2118206024169922
22.0006675720214844 26.6209564208984375 29.31268310546875
5.77637529373168945 31.440948486328125 6.68895101547241211
-28.0245647430419922 28.4009552001953125 31.9489955902099609
-37.7972831726074219 31.4409465789794922 15.1043891906738281
4.19800615310668945 21.5409507751464844 -26.3170909881591797
-48.0853996276855469 17.9809532165527344 -17.3799247741699219
12.8986740112304688 54.0509567260742188 -44.7616729736328125
13.3896112442016602 51.760955810546875 -46.7506103515625
-7.67727279663085938 44.91094970703125 -32.8840065002441406
-32.1245994567871094 57.6109542846679688 -38.0509300231933594
-18.487213134765625 61.16094970703125 -42.8005905151367188
1.59001040458679199 60.4009552001953125 -45.300018310546875
-48.0631141662597656 -19.6090507507324219 -31.0515346527099609
-1.10400128364562988 -19.6090507507324219 -41.3637275695800781
60.691864013671875 -19.6090507507324219 -66.4807205200195312
27.7142810821533203 -19.6090507507324219 -53.2819595336914062
90.7205352783203125 -19.6090507507324219 -81.7173919677734375
112.959487915039062 -19.6090507507324219 -85.7387847900390625
138.465988159179688 -11.7390527725219727 -101.702194213867188
135.248870849609375 -19.6090507507324219 -102.411087036132812
150.453704833984375 -15.0390510559082031 -111.105445861816406
152.2916259765625 -19.6090507507324219 -113.754806518554688
158.762359619140625 -19.6090507507324219 -105.118377685546875
158.215576171875 -15.7990484237670898 -105.273544311523438
155.56024169921875 -14.7790489196777344 -109.955848693847656
157.1751708984375 -19.6090507507324219 -111.03033447265625
0.848222315311431885 58.6209526062011719 -47.0368080139160156
-18.8461322784423828 59.6409568786621094 -43.5836753845214844
103.213081359863281 -19.6090488433837891 15.9179439544677734
140.425643920898438 -27.2290496826171875 -32.36456298828125
124.75238037109375 -33.5790481567382812 -11.9804534912109375
104.212425231933594 -24.9390487670898438 12.9015121459960938
102.855331420898438 -33.5790481567382812 11.0745019912719727
70.9532241821289062 -37.8990516662597656 41.6284751892089844
32.5038337707519531 -41.95904541015625 70.257415771484375
-9.85995388031005859 -27.7390518188476562 93.8674545288085938
-10.7909975051879883 -44.249053955078125 78.6084976196289062
104.225669860839844 -41.9590492248535156 4.37350654602050781
87.9982223510742188 -52.3790512084960938 6.01749849319458008
62.2190170288085938 -49.5790481567382812 29.0111312866210938
28.6586151123046875 -51.6090507507324219 51.8576812744140625
-15.3928012847900391 -55.4190521240234375 61.4343452453613281
97.1880035400390625 -56.189056396484375 -8.80506515502929688
107.456329345703125 -51.3590507507324219 -9.11631488800048828
113.689834594726562 -47.0390510559082031 -17.4692802429199219
126.661231994628906 -40.4390487670898438 -37.1107978820800781
138.124221801757812 -29.7690505981445312 -53.6343612670898438
93.1807327270507812 -55.4190521240234375 -18.1503429412841797
104.695289611816406 -50.5990486145019531 -15.8429031372070312
138.519989013671875 -33.5790481567382812 -61.4494857788085938
152.182052612304688 -26.9790496826171875 -97.2213897705078125
157.58856201171875 -26.9790515899658203 -95.871917724609375
130.051666259765625 -34.5990524291992188 -69.7245941162109375
143.197723388671875 -24.6890487670898438 -61.2587814331054688
161.663589477539062 -23.6690483093261719 -100.480636596679688
106.155845642089844 -50.33905029296875 -22.0411262512207031
110.505935668945312 -50.33905029296875 -33.6713027954101562
112.007354736328125 -50.08905029296875 -31.0971851348876953
122.937667846679688 -46.0290489196777344 -40.563720703125
118.742271423339844 -45.5190505981445312 -45.2211685180664062
125.624893188476562 -35.869049072265625 -72.7960128784179688
145.75421142578125 -27.9890499114990234 -97.0855178833007812
110.301933288574219 -45.5190505981445312 -54.8021163940429688
104.26611328125 -54.1490516662597656 -38.2235298156738281
80.3703384399414062 -54.4090499877929688 -41.9001274108886719
106.809738159179688 -47.0390510559082031 -59.8411636352539062
100.217216491699219 -54.4090499877929688 -32.0646400451660156
99.83612060546875 -54.1490516662597656 -22.7071552276611328
84.4465255737304688 -58.2190513610839844 -30.7676849365234375
141.506820678710938 -30.5290489196777344 -99.1628952026367188
123.225318908691406 -37.8990516662597656 -77.52447509765625
98.9630661010742188 -36.6290512084960938 -80.3624420166015625
91.2063064575195312 -51.3590507507324219 -49.0219459533691406
65.6409530639648438 -41.9590492248535156 -64.7944793701171875
116.075775146484375 -29.7690505981445312 -84.2393417358398438
122.089462280273438 -36.8790512084960938 -80.936767578125
41.4426918029785156 -62.7890510559082031 -38.7326736450195312
37.9378166198730469 -54.6590499877929688 -48.1696014404296875
80.3766555786132812 -59.9990501403808594 -28.9949226379394531
43.8303985595703125 -68.8890533447265625 -8.44379520416259766
78.5413742065429688 -59.7390518188476562 -10.5949516296386719
79.841888427734375 -56.1890525817871094 2.32985424995422363
51.2809867858886719 -62.2790489196777344 14.2118206024169922
22.0006675720214844 -65.83905029296875 29.31268310546875
5.77637481689453125 -70.6590499877929688 6.6889491081237793
-28.0245647430419922 -67.619049072265625 31.9489955902099609
-37.7972831726074219 -70.6590499877929688 15.1043891906738281
4.19800662994384766 -60.7590522766113281 -26.3170948028564453
-48.0853996276855469 -57.1990509033203125 -17.3799247741699219
12.8986730575561523 -93.2690582275390625 -44.7616767883300781
13.3896112442016602 -90.9790573120117188 -46.7506103515625
-7.67727279663085938 -84.1290435791015625 -32.8840065002441406
-32.1245994567871094 -96.8290557861328125 -38.0509300231933594
1.59001040458679199 -99.619049072265625 -45.300018310546875
-18.487213134765625 -100.379043579101562 -42.8005905151367188
138.465988159179688 -27.4790496826171875 -101.702194213867188
150.453704833984375 -24.1790485382080078 -111.105445861816406
158.215576171875 -23.4190483093261719 -105.273544311523438
155.56024169921875 -24.4390487670898438 -109.955848693847656
-18.8461322784423828 -98.8590545654296875 -43.5836753845214844
0.848222315311431885 -97.83905029296875 -47.0368080139160156
3 0 1 2
3 3 2 1
3 1 4 3
3 5 6 7
3 7 8 5
3 8 7 9
3 10 5 8
3 8 11 10
3 12 10 11
3 11 13 12
3 14 13 11
3 9 4 15
3 9 15 16
3 9 16 17
3 17 8 9
3 11 8 17
3 17 18 11
3 14 11 18
3 18 19 14
3 20 21 16
3 16 15 20
3 22 20 15
3 15 4 22
3 23 22 4
3 4 1 23
3 24 23 1
3 25 26 21
3 21 20 25
3 22 25 20
3 24 27 23
3 28 29 30
3 30 27 28
3 31 32 33
3 33 34 31
3 34 24 1
3 1 0 34
3 31 34 0
3 35 22 36
3 36 37 35
3 22 23 38
3 38 36 22
3 37 36 38
3 38 39 37
3 39 38 27
3 27 30 39
3 40 30 29
3 29 41 40
3 39 30 40
3 40 42 39
3 43 37 39
3 44 43 42
3 42 45 44
3 27 24 34
3 35 37 46
3 47 35 46
3 26 47 46
3 48 26 46
3 43 48 46
3 37 43 46
3 41 49 50
3 50 40 41
3 40 50 45
3 45 42 40
3 51 45 52
3 52 44 51
3 44 52 53
3 54 52 45
3 45 55 54
3 56 44 53
3 53 57 56
3 58 44 56
3 56 59 58
3 58 48 44
3 26 48 58
3 58 60 26
3 16 21 26
3 26 61 16
3 61 26 60
3 62 60 58
3 58 59 62
3 63 62 59
3 59 64 63
3 65 63 64
3 64 66 65
3 61 60 62
3 17 61 62
3 16 61 17
3 18 17 62
3 62 63 18
3 19 18 63
3 63 65 19
3 64 59 56
3 56 67 64
3 66 64 67
3 67 68 66
3 69 56 57
3 57 70 69
3 67 56 69
3 69 71 67
3 72 71 69
3 69 73 72
3 73 69 74
3 75 68 67
3 67 76 75
3 57 53 77
3 77 78 57
3 67 57 78
3 78 76 67
3 53 52 79
3 79 77 53
3 52 54 80
3 80 79 52
3 54 81 82
3 82 80 54
3 54 55 81
3 83 84 82
3 82 81 83
3 28 27 34
3 34 33 28
3 85 86 33
3 33 32 85
3 28 33 86
3 86 29 28
3 45 50 55
3 49 81 55
3 55 50 49
3 81 49 83
3 87 83 49
3 49 41 87
3 86 87 41
3 41 29 86
3 84 83 87
3 87 88 84
3 86 85 88
3 88 87 86
3 25 22 35
3 47 26 25
3 44 48 43
3 27 38 23
3 35 47 25
3 89 90 73
3 73 74 89
3 74 69 70
3 70 89 74
3 72 73 90
3 71 70 57
3 57 67 71
3 72 90 89
3 89 71 72
3 71 89 70
3 6 91 7
3 4 7 91
3 91 3 4
3 4 9 7
3 2 92 0
3 2 3 93
3 93 92 2
3 94 6 5
3 5 95 94
3 95 5 96
3 5 10 97
3 97 96 5
3 10 12 98
3 98 97 10
3 97 98 99
3 100 93 95
3 101 100 95
3 101 95 96
3 96 102 101
3 96 97 103
3 103 102 96
3 97 99 104
3 104 103 97
3 105 106 100
3 100 101 105
3 106 107 93
3 93 100 106
3 93 107 108
3 108 92 93
3 92 108 109
3 110 111 106
3 106 105 110
3 106 111 107
3 108 112 109
3 113 114 112
3 112 115 113
3 32 31 116
3 116 117 32
3 109 116 0
3 0 92 109
3 0 116 31
3 107 118 119
3 119 120 107
3 108 107 120
3 120 121 108
3 120 119 122
3 122 121 120
3 121 122 115
3 115 112 121
3 115 123 124
3 124 113 115
3 115 122 125
3 125 123 115
3 122 119 126
3 126 127 128
3 128 125 126
3 116 109 112
3 129 119 118
3 129 118 130
3 129 130 110
3 129 110 131
3 129 131 126
3 129 126 119
3 132 124 123
3 123 133 132
3 133 123 125
3 125 128 133
3 134 128 135
3 135 136 134
3 136 135 127
3 134 137 138
3 138 128 134
3 127 139 140
3 140 136 127
3 127 141 142
3 142 139 127
3 127 131 141
3 131 110 143
3 143 141 131
3 110 105 101
3 101 143 110
3 143 101 144
3 143 145 142
3 142 141 143
3 145 146 147
3 147 142 145
3 146 148 149
3 149 147 146
3 145 143 144
3 145 144 102
3 102 144 101
3 102 103 146
3 146 145 102
3 103 104 148
3 148 146 103
3 142 147 150
3 150 139 142
3 147 149 151
3 151 150 147
3 139 152 153
3 153 140 139
3 139 150 154
3 154 152 139
3 152 154 155
3 155 156 152
3 156 155 157
3 151 75 76
3 76 150 151
3 136 140 78
3 78 77 136
3 140 150 76
3 76 78 140
3 134 136 77
3 77 79 134
3 137 134 79
3 79 80 137
3 158 137 80
3 80 82 158
3 158 138 137
3 84 159 158
3 158 82 84
3 112 114 117
3 117 116 112
3 160 85 32
3 32 117 160
3 117 114 113
3 113 160 117
3 138 133 128
3 158 132 133
3 133 138 158
3 159 132 158
3 159 161 124
3 124 132 159
3 161 160 113
3 113 124 161
3 159 84 88
3 88 161 159
3 85 160 161
3 161 88 85
3 118 107 111
3 111 110 130
3 126 131 127
3 108 121 112
3 111 130 118
3 162 163 156
3 156 157 162
3 152 156 163
3 163 153 152
3 162 157 155
3 153 154 150
3 150 140 153
3 163 162 155
3 155 153 163
3 153 155 154
3 94 91 6
3 94 93 3
3 3 91 94
3 94 95 93
3 126 125 122
3 39 42 43
