ply
format ascii 1.0
element vertex 164
property float x
property float y
property float z
element face 310
property list uchar int vertex_indices
end_header
-208.0323486328125 -0.390949249267578125 12.0598278045654297
-202.65435791015625 -8.01094818115234375 15.4358272552490234
-196.69134521484375 -0.390949249267578125 22.8378276824951172
-177.9173583984375 -0.390949249267578125 37.0818252563476562
-182.239349365234375 -14.3609504699707031 31.0688228607177734
-114.877349853515625 -0.390949249267578125 74.9118270874023438
-150.75634765625 -0.390949249267578125 54.1918258666992188
-155.9593505859375 -5.72095108032226562 49.7868270874023438
-116.398345947265625 -18.6809501647949219 68.9268264770507812
-155.121368408203125 -14.3609504699707031 47.6708297729492188
-70.650360107421875 -0.390949249267578125 91.8878250122070312
-71.849365234375 -22.7409477233886719 86.6288223266601562
-30.1473731994628906 -0.390949249267578125 99.229827880859375
-24.8183631896972656 -8.5209503173828125 98.469818115234375
-27.8683509826660156 -25.0309486389160156 83.4898300170898438
-158.179351806640625 -22.7409477233886719 41.5528335571289062
-142.079345703125 -33.16094970703125 38.9408340454101562
-111.22735595703125 -30.3609504699707031 54.4788284301757812
-72.897369384765625 -32.3909492492675781 67.8608322143554688
-27.8683509826660156 -36.2009506225585938 65.7098312377929688
-164.791351318359375 -32.1409492492675781 29.3588237762451172
-154.7923583984375 -36.9709510803222656 27.0018291473388672
-172.974365234375 -27.8209495544433594 22.9038295745849609
-190.587371826171875 -21.2209510803222656 7.28882408142089844
-205.936370849609375 -10.5509490966796875 -5.70487403869628906
-163.8653564453125 -31.3809471130371094 22.1468257904052734
-153.340362548828125 -36.2009506225585938 16.9378261566162109
-208.34136962890625 -14.3609504699707031 -13.1512699127197266
-235.66937255859375 -7.76094818115234375 -41.4654769897460938
-230.796356201171875 -7.76094818115234375 -44.16827392578125
-202.3033447265625 -15.3809471130371094 -23.3361759185791016
-215.791351318359375 -0.390949249267578125 -13.8066730499267578
-241.9383544921875 -0.390949249267578125 -43.2424774169921875
-240.798370361328125 -4.45095062255859375 -44.8624725341796875
-212.81036376953125 -5.47095108032226562 -11.7563724517822266
-166.88037109375 -31.1209487915039062 16.5378246307373047
-174.876373291015625 -30.8709487915039062 9.30482292175292969
-174.09234619140625 -31.1209487915039062 6.42982292175292969
-187.884368896484375 -26.8109474182128906 2.98982810974121094
-185.037353515625 -26.3009490966796875 -2.59477400779724121
-198.822357177734375 -16.6509513854980469 -27.4486713409423828
-224.5523681640625 -8.7709503173828125 -45.7006759643554688
-179.364349365234375 -26.3009490966796875 -14.0337772369384766
-169.24334716796875 -34.9309501647949219 0.417723000049591064
-147.113372802734375 -35.190948486328125 -9.31827735900878906
-177.29534912109375 -27.8209495544433594 -19.8049716949462891
-163.738372802734375 -35.190948486328125 5.31882286071777344
-160.9483642578125 -34.9309501647949219 14.2588253021240234
-148.16937255859375 -39.0009498596191406 2.48982810974121094
-220.98736572265625 -11.3109474182128906 -48.8065719604492188
-197.728363037109375 -18.6809501647949219 -32.6370697021484375
-159.423370361328125 -32.1409492492675781 -13.3928699493408203
-175.02734375 -17.41094970703125 -41.6578750610351562
-138.811370849609375 -22.7409477233886719 -35.2447738647460938
-192.56036376953125 -10.5509490966796875 -40.97357177734375
-197.514373779296875 -17.66094970703125 -36.2270736694335938
-108.692352294921875 -43.5709495544433594 -16.3339710235595703
-107.749359130859375 -35.440948486328125 -26.3564701080322266
-143.77935791015625 -40.7809486389160156 3.14882493019104004
-103.15936279296875 -49.6709518432617188 13.5408229827880859
-137.244354248046875 -40.5209465026855469 20.4468288421630859
-135.155364990234375 -36.9709510803222656 33.2678298950195312
-104.49237060546875 -43.0609474182128906 37.3528213500976562
-72.301361083984375 -46.6209564208984375 44.3608322143554688
-62.4853553771972656 -51.440948486328125 18.3088283538818359
-23.2983741760253906 -48.4009552001953125 33.9598312377929688
-18.2183570861816406 -51.440948486328125 15.1598262786865234
-69.50335693359375 -41.5409507751464844 -13.9810733795166016
-16.6883583068847656 -37.9809532165527344 -18.8803730010986328
-82.681365966796875 -74.0509567260742188 -29.5452747344970703
-83.67034912109375 -71.760955810546875 -31.3393726348876953
-59.7323646545410156 -64.91094970703125 -23.3977756500244141
-37.4553565979003906 -77.6109542846679688 -34.7160720825195312
-51.8573646545410156 -81.16094970703125 -35.7742767333984375
-71.897369384765625 -80.4009552001953125 -32.9921722412109375
-20.2483558654785156 -0.390949249267578125 -32.0803680419921875
-68.2763671875 -0.390949249267578125 -29.8872699737548828
-134.46734619140625 -0.390949249267578125 -38.1544723510742188
-99.197357177734375 -0.390949249267578125 -33.940673828125
-167.416351318359375 -0.390949249267578125 -45.0999755859375
-189.9383544921875 -0.390949249267578125 -43.2284774780273438
-218.707366943359375 -8.26094818115234375 -52.0463714599609375
-215.783355712890625 -0.390949249267578125 -53.5637741088867188
-232.720367431640625 -4.96094894409179688 -58.0265731811523438
-235.181365966796875 -0.390949249267578125 -60.1099700927734375
-239.19635009765625 -0.390949249267578125 -50.0930709838867188
-238.708343505859375 -4.20095062255859375 -50.3844757080078125
-237.3553466796875 -5.22095108032226562 -55.5944747924804688
-239.193359375 -0.390949249267578125 -56.2143707275390625
-71.63037109375 -78.6209564208984375 -34.8617706298828125
-51.7133522033691406 -79.6409530639648438 -36.6235733032226562
-154.213348388671875 -0.390949249267578125 52.4418258666992188
-202.65435791015625 7.22904872894287109 15.4358272552490234
-182.239349365234375 13.5790500640869141 31.0688228607177734
-155.9593505859375 4.93904972076416016 49.7868270874023438
-155.121368408203125 13.5790500640869141 47.6708297729492188
-116.398345947265625 17.8990516662597656 68.9268264770507812
-71.849365234375 21.9590492248535156 86.6288223266601562
-24.8183631896972656 7.73905086517333984 98.469818115234375
-27.8683509826660156 24.2490501403808594 83.4898300170898438
-158.179351806640625 21.9590492248535156 41.5528335571289062
-142.079345703125 32.3790512084960938 38.9408340454101562
-111.22735595703125 29.5790481567382812 54.4788284301757812
-72.897369384765625 31.6090507507324219 67.8608322143554688
-27.8683509826660156 35.4190521240234375 65.7098312377929688
-154.7923583984375 36.1890525817871094 27.0018291473388672
-164.791351318359375 31.3590507507324219 29.3588237762451172
-172.974365234375 27.0390510559082031 22.9038295745849609
-190.587371826171875 20.4390506744384766 7.28882408142089844
-205.936370849609375 9.76904964447021484 -5.70487403869628906
-153.340362548828125 35.4190521240234375 16.9378261566162109
-163.8653564453125 30.5990486145019531 22.1468257904052734
-208.34136962890625 13.5790500640869141 -13.1512699127197266
-230.796356201171875 6.97904872894287109 -44.16827392578125
-235.66937255859375 6.97904872894287109 -41.4654769897460938
-202.3033447265625 14.5990505218505859 -23.3361759185791016
-212.81036376953125 4.68904972076416016 -11.7563724517822266
-240.798370361328125 3.66904830932617188 -44.8624725341796875
-166.88037109375 30.33905029296875 16.5378246307373047
-174.09234619140625 30.33905029296875 6.42982292175292969
-174.876373291015625 30.08905029296875 9.30482292175292969
-187.884368896484375 26.0290489196777344 2.98982810974121094
-185.037353515625 25.5190505981445312 -2.59477400779724121
-198.822357177734375 15.8690500259399414 -27.4486713409423828
-224.5523681640625 7.98905086517333984 -45.7006759643554688
-179.364349365234375 25.5190505981445312 -14.0337772369384766
-169.24334716796875 34.1490516662597656 0.417723000049591064
-147.113372802734375 34.4090499877929688 -9.31827735900878906
-177.29534912109375 27.0390510559082031 -19.8049716949462891
-163.738372802734375 34.4090499877929688 5.31882286071777344
-160.9483642578125 34.1490516662597656 14.2588253021240234
-148.16937255859375 38.2190513610839844 2.48982810974121094
-220.98736572265625 10.5290498733520508 -48.8065719604492188
-197.728363037109375 17.8990516662597656 -32.6370697021484375
-175.02734375 16.6290493011474609 -41.6578750610351562
-159.423370361328125 31.3590507507324219 -13.3928699493408203
-138.811370849609375 21.9590492248535156 -35.2447738647460938
-192.56036376953125 9.76904964447021484 -40.97357177734375
-197.514373779296875 16.8790493011474609 -36.2270736694335938
-108.692352294921875 42.7890510559082031 -16.3339710235595703
-107.749359130859375 34.6590499877929688 -26.3564701080322266
-143.77935791015625 39.9990501403808594 3.14882493019104004
-103.15936279296875 48.8890495300292969 13.5408229827880859
-137.244354248046875 39.7390518188476562 20.4468288421630859
-135.155364990234375 36.1890525817871094 33.2678298950195312
-104.49237060546875 42.2790489196777344 37.3528213500976562
-72.301361083984375 45.83905029296875 44.3608322143554688
-62.4853553771972656 50.6590499877929688 18.3088283538818359
-23.2983741760253906 47.619049072265625 33.9598312377929688
-18.2183570861816406 50.6590499877929688 15.1598262786865234
-69.50335693359375 40.7590522766113281 -13.9810733795166016
-16.6883583068847656 37.1990509033203125 -18.8803730010986328
-82.681365966796875 73.2690582275390625 -29.5452747344970703
-83.67034912109375 70.9790496826171875 -31.3393726348876953
-59.7323646545410156 64.1290435791015625 -23.3977756500244141
-37.4553565979003906 76.8290557861328125 -34.7160720825195312
-71.897369384765625 79.619049072265625 -32.9921722412109375
-51.8573646545410156 80.3790435791015625 -35.7742767333984375
-218.707366943359375 7.47904872894287109 -52.0463714599609375
-232.720367431640625 4.17904853820800781 -58.0265731811523438
-238.708343505859375 3.41904830932617188 -50.3844757080078125
-237.3553466796875 4.43904972076416016 -55.5944747924804688
-51.7133522033691406 78.8590545654296875 -36.6235733032226562
-71.63037109375 77.83905029296875 -34.8617706298828125
3 0 1 2
3 3 2 1
3 1 4 3
3 5 6 7
3 7 8 5
3 8 7 9
3 10 5 8
3 8 11 10
3 12 10 11
3 11 13 12
3 14 13 11
3 9 4 15
3 9 15 16
3 9 16 17
3 17 8 9
3 11 8 17
3 17 18 11
3 14 11 18
3 18 19 14
3 20 21 16
3 16 15 20
3 22 20 15
3 15 4 22
3 23 22 4
3 4 1 23
3 24 23 1
3 25 26 21
3 21 20 25
3 22 25 20
3 24 27 23
3 28 29 30
3 30 27 28
3 31 32 33
3 33 34 31
3 34 24 1
3 1 0 34
3 31 34 0
3 35 22 36
3 36 37 35
3 22 23 38
3 38 36 22
3 37 36 38
3 38 39 37
3 39 38 27
3 27 30 39
3 40 30 29
3 29 41 40
3 39 30 40
3 40 42 39
3 43 37 39
3 44 43 42
3 42 45 44
3 27 24 34
3 35 37 46
3 47 35 46
3 26 47 46
3 48 26 46
3 43 48 46
3 37 43 46
3 41 49 50
3 50 40 41
3 40 50 45
3 45 42 40
3 51 45 52
3 52 44 51
3 44 52 53
3 54 52 45
3 45 55 54
3 56 44 53
3 53 57 56
3 58 44 56
3 56 59 58
3 58 48 44
3 26 48 58
3 58 60 26
3 16 21 26
3 26 61 16
3 61 26 60
3 62 60 58
3 58 59 62
3 63 62 59
3 59 64 63
3 65 63 64
3 64 66 65
3 61 60 62
3 17 61 62
3 16 61 17
3 18 17 62
3 62 63 18
3 19 18 63
3 63 65 19
3 64 59 56
3 56 67 64
3 66 64 67
3 67 68 66
3 69 56 57
3 57 70 69
3 67 56 69
3 69 71 67
3 72 71 69
3 69 73 72
3 73 69 74
3 75 68 67
3 67 76 75
3 57 53 77
3 77 78 57
3 67 57 78
3 78 76 67
3 53 52 79
3 79 77 53
3 52 54 80
3 80 79 52
3 54 81 82
3 82 80 54
3 54 55 81
3 83 84 82
3 82 81 83
3 28 27 34
3 34 33 28
3 85 86 33
3 33 32 85
3 28 33 86
3 86 29 28
3 45 50 55
3 49 81 55
3 55 50 49
3 81 49 83
3 87 83 49
3 49 41 87
3 86 87 41
3 41 29 86
3 84 83 87
3 87 88 84
3 86 85 88
3 88 87 86
3 25 22 35
3 47 26 25
3 44 48 43
3 27 38 23
3 35 47 25
3 89 90 73
3 73 74 89
3 74 69 70
3 70 89 74
3 72 73 90
3 71 70 57
3 57 67 71
3 72 90 89
3 89 71 72
3 71 89 70
3 6 91 7
3 4 7 91
3 91 3 4
3 4 9 7
3 2 92 0
3 2 3 93
3 93 92 2
3 94 6 5
3 5 95 94
3 95 5 96
3 5 10 97
3 97 96 5
3 10 12 98
3 98 97 10
3 97 98 99
3 100 93 95
3 101 100 95
3 101 95 96
3 96 102 101
3 96 97 103
3 103 102 96
3 97 99 104
3 104 103 97
3 105 106 100
3 100 101 105
3 106 107 93
3 93 100 106
3 93 107 108
3 108 92 93
3 92 108 109
3 110 111 106
3 106 105 110
3 106 111 107
3 108 112 109
3 113 114 112
3 112 115 113
3 32 31 116
3 116 117 32
3 109 116 0
3 0 92 109
3 0 116 31
3 107 118 119
3 119 120 107
3 108 107 120
3 120 121 108
3 120 119 122
3 122 121 120
3 121 122 115
3 115 112 121
3 115 123 124
3 124 113 115
3 115 122 125
3 125 123 115
3 122 119 126
3 126 127 128
3 128 125 126
3 116 109 112
3 129 119 118
3 129 118 130
3 129 130 110
3 129 110 131
3 129 131 126
3 129 126 119
3 132 124 123
3 123 133 132
3 133 123 125
3 125 128 133
3 134 128 135
3 135 136 134
3 136 135 127
3 134 137 138
3 138 128 134
3 127 139 140
3 140 136 127
3 127 141 142
3 142 139 127
3 127 131 141
3 131 110 143
3 143 141 131
3 110 105 101
3 101 143 110
3 143 101 144
3 143 145 142
3 142 141 143
3 145 146 147
3 147 142 145
3 146 148 149
3 149 147 146
3 145 143 144
3 145 144 102
3 102 144 101
3 102 103 146
3 146 145 102
3 103 104 148
3 148 146 103
3 142 147 150
3 150 139 142
3 147 149 151
3 151 150 147
3 139 152 153
3 153 140 139
3 139 150 154
3 154 152 139
3 152 154 155
3 155 156 152
3 156 155 157
3 151 75 76
3 76 150 151
3 136 140 78
3 78 77 136
3 140 150 76
3 76 78 140
3 134 136 77
3 77 79 134
3 137 134 79
3 79 80 137
3 158 137 80
3 80 82 158
3 158 138 137
3 84 159 158
3 158 82 84
3 112 114 117
3 117 116 112
3 160 85 32
3 32 117 160
3 117 114 113
3 113 160 117
3 138 133 128
3 158 132 133
3 133 138 158
3 159 132 158
3 159 161 124
3 124 132 159
3 161 160 113
3 113 124 161
3 159 84 88
3 88 161 159
3 85 160 161
3 161 88 85
3 118 107 111
3 111 110 130
3 126 131 127
3 108 121 112
3 111 130 118
3 162 163 156
3 156 157 162
3 152 156 163
3 163 153 152
3 162 157 155
3 153 154 150
3 150 140 153
3 163 162 155
3 155 153 163
3 153 155 154
3 94 91 6
3 94 93 3
3 3 91 94
3 94 95 93
3 126 125 122
3 39 42 43
