ply
format ascii 1.0
comment Created by Blender 2.79 (sub 0) - www.blender.org, source file: 'spheres_both_smaller.blend'
element vertex 41
property float x
property float y
property float z
element face 73
property list uchar uint vertex_indices
end_header
0.024176 0.243305 -0.941382
0.449499 -0.065707 -0.792036
-0.138279 -0.256691 -0.792036
0.747784 -0.282421 -0.388601
0.874824 0.243305 -0.467118
-0.501553 0.243305 -0.792033
-0.138279 0.743300 -0.792036
0.449499 0.552316 -0.792036
0.975234 -0.065708 0.058618
-0.870250 0.243305 -0.388597
-0.664013 -0.256692 -0.467118
-0.926882 -0.065708 0.058618
-0.252212 1.093954 -0.388602
-0.664013 0.743302 -0.467118
-0.563609 1.052321 0.058618
0.747784 0.769030 -0.388601
0.287045 1.052316 -0.467119
0.611962 1.052321 0.058618
0.611962 -0.565712 0.058618
-0.926882 0.552317 0.058618
0.024176 1.243304 0.058618
0.975234 0.552317 0.058618
0.300564 -0.607345 0.505838
0.712366 -0.256692 0.584355
0.186632 -0.256691 0.909273
-0.699431 -0.282421 0.505838
-0.238692 -0.565707 0.584356
-0.401146 -0.065707 0.909272
-0.699431 0.769030 0.505838
-0.826472 0.243305 0.584354
-0.401146 0.552316 0.909272
0.300564 1.093954 0.505838
-0.238692 1.052316 0.584356
0.186632 0.743300 0.909273
0.918603 0.243305 0.505834
0.712366 0.743302 0.584355
0.549906 0.243305 0.909270
0.024176 0.243305 1.058618
-0.563609 -0.565712 0.058618
-0.252212 -0.607345 -0.388602
0.287045 -0.565707 -0.467119
3 0 1 2
3 3 1 4
3 0 2 5
3 0 5 6
3 0 6 7
3 3 4 8
3 9 10 11
3 12 13 14
3 15 16 17
3 3 8 18
3 9 11 19
3 12 14 20
3 15 17 21
3 22 23 24
3 25 26 27
3 28 29 30
3 31 32 33
3 34 35 36
3 36 33 37
3 36 35 33
3 35 31 33
3 33 30 37
3 33 32 30
3 32 28 30
3 30 27 37
3 30 29 27
3 29 25 27
3 27 24 37
3 27 26 24
3 26 22 24
3 24 36 37
3 24 23 36
3 23 34 36
3 21 35 34
3 21 17 35
3 17 31 35
3 20 32 31
3 20 14 32
3 14 28 32
3 19 29 28
3 19 11 29
3 11 25 29
3 38 26 25
3 18 8 23
3 8 34 23
3 17 20 31
3 17 16 20
3 16 12 20
3 14 19 28
3 14 13 19
3 13 9 19
3 11 38 25
3 11 10 38
3 10 39 38
3 40 3 18
3 8 21 34
3 8 4 21
3 4 15 21
3 7 16 15
3 7 6 16
3 6 12 16
3 6 13 12
3 6 5 13
3 5 9 13
3 5 10 9
3 5 2 10
3 2 39 10
3 4 7 15
3 4 1 7
3 1 0 7
3 2 40 39
3 2 1 40
3 1 3 40
