ply
format ascii 1.0
comment Created by Blender 2.79 (sub 0) - www.blender.org, source file: ''
element vertex 164
property float x
property float y
property float z
element face 310
property list uchar uint vertex_indices
end_header
-188.032349 -20.390949 12.059828
-182.654358 -28.010948 15.435827
-176.691345 -20.390949 22.837828
-157.917358 -20.390949 37.081825
-162.239349 -34.360950 31.068823
-94.877350 -20.390949 74.911827
-130.756348 -20.390949 54.191826
-135.959351 -25.720951 49.786827
-96.398346 -38.680950 68.926826
-135.121368 -34.360950 47.670830
-50.650364 -20.390949 91.887825
-51.849369 -42.740948 86.628822
-10.147373 -20.390949 99.229828
-4.818363 -28.520950 98.469818
-7.868351 -45.030949 83.489830
-138.179352 -42.740948 41.552834
-122.079346 -53.160950 38.940834
-91.227356 -50.360950 54.478828
-52.897373 -52.390949 67.860832
-7.868351 -56.200951 65.709831
-144.791351 -52.140949 29.358824
-134.792358 -56.970951 27.001829
-152.974365 -47.820950 22.903830
-170.587372 -41.220951 7.288824
-185.936371 -30.550949 -5.704874
-143.865356 -51.380947 22.146826
-133.340363 -56.200951 16.937826
-188.341370 -34.360950 -13.151270
-215.669373 -27.760948 -41.465477
-210.796356 -27.760948 -44.168274
-182.303345 -35.380947 -23.336176
-195.791351 -20.390949 -13.806673
-221.938354 -20.390949 -43.242477
-220.798370 -24.450951 -44.862473
-192.810364 -25.470951 -11.756372
-146.880371 -51.120949 16.537825
-154.876373 -50.870949 9.304823
-154.092346 -51.120949 6.429823
-167.884369 -46.810947 2.989828
-165.037354 -46.300949 -2.594774
-178.822357 -36.650951 -27.448671
-204.552368 -28.770950 -45.700676
-159.364349 -46.300949 -14.033777
-149.243347 -54.930950 0.417723
-127.113373 -55.190948 -9.318277
-157.295349 -47.820950 -19.804972
-143.738373 -55.190948 5.318823
-140.948364 -54.930950 14.258825
-128.169373 -59.000950 2.489828
-200.987366 -31.310947 -48.806572
-177.728363 -38.680950 -32.637070
-139.423370 -52.140949 -13.392870
-155.027344 -37.410950 -41.657875
-118.811371 -42.740948 -35.244774
-172.560364 -30.550949 -40.973572
-177.514374 -37.660950 -36.227074
-88.692352 -63.570950 -16.333971
-87.749359 -55.440948 -26.356470
-123.779358 -60.780949 3.148825
-83.159363 -69.670952 13.540823
-117.244354 -60.520947 20.446829
-115.155365 -56.970951 33.267830
-84.492371 -63.060947 37.352821
-52.301365 -66.620956 44.360832
-42.485355 -71.440948 18.308828
-3.298374 -68.400955 33.959831
1.781643 -71.440948 15.159826
-49.503361 -61.540951 -13.981073
3.311642 -57.980953 -18.880373
-62.681370 -94.050957 -29.545275
-63.670353 -91.760956 -31.339373
-39.732365 -84.910950 -23.397776
-17.455357 -97.610954 -34.716072
-31.857365 -101.160950 -35.774277
-51.897373 -100.400955 -32.992172
-0.248356 -20.390949 -32.080368
-48.276371 -20.390949 -29.887270
-114.467346 -20.390949 -38.154472
-79.197357 -20.390949 -33.940674
-147.416351 -20.390949 -45.099976
-169.938354 -20.390949 -43.228477
-198.707367 -28.260948 -52.046371
-195.783356 -20.390949 -53.563774
-212.720367 -24.960949 -58.026573
-215.181366 -20.390949 -60.109970
-219.196350 -20.390949 -50.093071
-218.708344 -24.200951 -50.384476
-217.355347 -25.220951 -55.594475
-219.193359 -20.390949 -56.214371
-51.630375 -98.620956 -34.861771
-31.713352 -99.640953 -36.623573
-134.213348 -20.390949 52.441826
-182.654358 -12.770951 15.435827
-162.239349 -6.420950 31.068823
-135.959351 -15.060950 49.786827
-135.121368 -6.420950 47.670830
-96.398346 -2.100949 68.926826
-51.849369 1.959050 86.628822
-4.818363 -12.260949 98.469818
-7.868351 4.249049 83.489830
-138.179352 1.959050 41.552834
-122.079346 12.379050 38.940834
-91.227356 9.579049 54.478828
-52.897373 11.609050 67.860832
-7.868351 15.419051 65.709831
-134.792358 16.189053 27.001829
-144.791351 11.359050 29.358824
-152.974365 7.039050 22.903830
-170.587372 0.439050 7.288824
-185.936371 -10.230950 -5.704874
-133.340363 15.419051 16.937826
-143.865356 10.599050 22.146826
-188.341370 -6.420950 -13.151270
-210.796356 -13.020951 -44.168274
-215.669373 -13.020951 -41.465477
-182.303345 -5.400950 -23.336176
-192.810364 -15.310950 -11.756372
-220.798370 -16.330952 -44.862473
-146.880371 10.339049 16.537825
-154.092346 10.339049 6.429823
-154.876373 10.089049 9.304823
-167.884369 6.029050 2.989828
-165.037354 5.519050 -2.594774
-178.822357 -4.130950 -27.448671
-204.552368 -12.010949 -45.700676
-159.364349 5.519050 -14.033777
-149.243347 14.149051 0.417723
-127.113373 14.409049 -9.318277
-157.295349 7.039050 -19.804972
-143.738373 14.409049 5.318823
-140.948364 14.149051 14.258825
-128.169373 18.219051 2.489828
-200.987366 -9.470950 -48.806572
-177.728363 -2.100949 -32.637070
-155.027344 -3.370950 -41.657875
-139.423370 11.359050 -13.392870
-118.811371 1.959050 -35.244774
-172.560364 -10.230950 -40.973572
-177.514374 -3.120950 -36.227074
-88.692352 22.789051 -16.333971
-87.749359 14.659049 -26.356470
-123.779358 19.999050 3.148825
-83.159363 28.889050 13.540823
-117.244354 19.739052 20.446829
-115.155365 16.189053 33.267830
-84.492371 22.279049 37.352821
-52.301365 25.839050 44.360832
-42.485355 30.659050 18.308828
-3.298374 27.619049 33.959831
1.781643 30.659050 15.159826
-49.503361 20.759052 -13.981073
3.311642 17.199051 -18.880373
-62.681370 53.269054 -29.545275
-63.670353 50.979053 -31.339373
-39.732365 44.129047 -23.397776
-17.455357 56.829052 -34.716072
-51.897373 59.619053 -32.992172
-31.857365 60.379047 -35.774277
-198.707367 -12.520951 -52.046371
-212.720367 -15.820951 -58.026573
-218.708344 -16.580952 -50.384476
-217.355347 -15.560950 -55.594475
-31.713352 58.859051 -36.623573
-51.630375 57.839054 -34.861771
3 0 1 2
3 3 2 1
3 1 4 3
3 5 6 7
3 7 8 5
3 8 7 9
3 10 5 8
3 8 11 10
3 12 10 11
3 11 13 12
3 14 13 11
3 9 4 15
3 9 15 16
3 9 16 17
3 17 8 9
3 11 8 17
3 17 18 11
3 14 11 18
3 18 19 14
3 20 21 16
3 16 15 20
3 22 20 15
3 15 4 22
3 23 22 4
3 4 1 23
3 24 23 1
3 25 26 21
3 21 20 25
3 22 25 20
3 24 27 23
3 28 29 30
3 30 27 28
3 31 32 33
3 33 34 31
3 34 24 1
3 1 0 34
3 31 34 0
3 35 22 36
3 36 37 35
3 22 23 38
3 38 36 22
3 37 36 38
3 38 39 37
3 39 38 27
3 27 30 39
3 40 30 29
3 29 41 40
3 39 30 40
3 40 42 39
3 43 37 39
3 44 43 42
3 42 45 44
3 27 24 34
3 35 37 46
3 47 35 46
3 26 47 46
3 48 26 46
3 43 48 46
3 37 43 46
3 41 49 50
3 50 40 41
3 40 50 45
3 45 42 40
3 51 45 52
3 52 44 51
3 44 52 53
3 54 52 45
3 45 55 54
3 56 44 53
3 53 57 56
3 58 44 56
3 56 59 58
3 58 48 44
3 26 48 58
3 58 60 26
3 16 21 26
3 26 61 16
3 61 26 60
3 62 60 58
3 58 59 62
3 63 62 59
3 59 64 63
3 65 63 64
3 64 66 65
3 61 60 62
3 17 61 62
3 16 61 17
3 18 17 62
3 62 63 18
3 19 18 63
3 63 65 19
3 64 59 56
3 56 67 64
3 66 64 67
3 67 68 66
3 69 56 57
3 57 70 69
3 67 56 69
3 69 71 67
3 72 71 69
3 69 73 72
3 73 69 74
3 75 68 67
3 67 76 75
3 57 53 77
3 77 78 57
3 67 57 78
3 78 76 67
3 53 52 79
3 79 77 53
3 52 54 80
3 80 79 52
3 54 81 82
3 82 80 54
3 54 55 81
3 83 84 82
3 82 81 83
3 28 27 34
3 34 33 28
3 85 86 33
3 33 32 85
3 28 33 86
3 86 29 28
3 45 50 55
3 49 81 55
3 55 50 49
3 81 49 83
3 87 83 49
3 49 41 87
3 86 87 41
3 41 29 86
3 84 83 87
3 87 88 84
3 86 85 88
3 88 87 86
3 25 22 35
3 47 26 25
3 44 48 43
3 27 38 23
3 35 47 25
3 89 90 73
3 73 74 89
3 74 69 70
3 70 89 74
3 72 73 90
3 71 70 57
3 57 67 71
3 72 90 89
3 89 71 72
3 71 89 70
3 6 91 7
3 4 7 91
3 91 3 4
3 4 9 7
3 2 92 0
3 2 3 93
3 93 92 2
3 94 6 5
3 5 95 94
3 95 5 96
3 5 10 97
3 97 96 5
3 10 12 98
3 98 97 10
3 97 98 99
3 100 93 95
3 101 100 95
3 101 95 96
3 96 102 101
3 96 97 103
3 103 102 96
3 97 99 104
3 104 103 97
3 105 106 100
3 100 101 105
3 106 107 93
3 93 100 106
3 93 107 108
3 108 92 93
3 92 108 109
3 110 111 106
3 106 105 110
3 106 111 107
3 108 112 109
3 113 114 112
3 112 115 113
3 32 31 116
3 116 117 32
3 109 116 0
3 0 92 109
3 0 116 31
3 107 118 119
3 119 120 107
3 108 107 120
3 120 121 108
3 120 119 122
3 122 121 120
3 121 122 115
3 115 112 121
3 115 123 124
3 124 113 115
3 115 122 125
3 125 123 115
3 122 119 126
3 126 127 128
3 128 125 126
3 116 109 112
3 129 119 118
3 129 118 130
3 129 130 110
3 129 110 131
3 129 131 126
3 129 126 119
3 132 124 123
3 123 133 132
3 133 123 125
3 125 128 133
3 134 128 135
3 135 136 134
3 136 135 127
3 134 137 138
3 138 128 134
3 127 139 140
3 140 136 127
3 127 141 142
3 142 139 127
3 127 131 141
3 131 110 143
3 143 141 131
3 110 105 101
3 101 143 110
3 143 101 144
3 143 145 142
3 142 141 143
3 145 146 147
3 147 142 145
3 146 148 149
3 149 147 146
3 145 143 144
3 145 144 102
3 102 144 101
3 102 103 146
3 146 145 102
3 103 104 148
3 148 146 103
3 142 147 150
3 150 139 142
3 147 149 151
3 151 150 147
3 139 152 153
3 153 140 139
3 139 150 154
3 154 152 139
3 152 154 155
3 155 156 152
3 156 155 157
3 151 75 76
3 76 150 151
3 136 140 78
3 78 77 136
3 140 150 76
3 76 78 140
3 134 136 77
3 77 79 134
3 137 134 79
3 79 80 137
3 158 137 80
3 80 82 158
3 158 138 137
3 84 159 158
3 158 82 84
3 112 114 117
3 117 116 112
3 160 85 32
3 32 117 160
3 117 114 113
3 113 160 117
3 138 133 128
3 158 132 133
3 133 138 158
3 159 132 158
3 159 161 124
3 124 132 159
3 161 160 113
3 113 124 161
3 159 84 88
3 88 161 159
3 85 160 161
3 161 88 85
3 118 107 111
3 111 110 130
3 126 131 127
3 108 121 112
3 111 130 118
3 162 163 156
3 156 157 162
3 152 156 163
3 163 153 152
3 162 157 155
3 153 154 150
3 150 140 153
3 163 162 155
3 155 153 163
3 153 155 154
3 94 91 6
3 94 93 3
3 3 91 94
3 94 95 93
3 126 125 122
3 39 42 43
