ply
format ascii 1.0
comment Created by Blender 2.79 (sub 0) - www.blender.org, source file: 'spheres_both_smaller.blend'
element vertex 41
property float x
property float y
property float z
element face 73
property list uchar uint vertex_indices
end_header
0.424410 -0.298999 -0.858080
-0.017754 0.019558 -0.899367
0.525359 0.203750 -0.669018
-0.447226 0.252765 -0.654692
-0.544635 -0.273776 -0.764040
0.846480 -0.300070 -0.510874
0.501823 -0.795638 -0.643492
-0.032299 -0.598093 -0.883591
-0.839489 0.053440 -0.330497
1.023102 -0.291021 0.006254
0.877264 0.208440 -0.160974
0.903536 0.031835 0.430713
0.436737 -1.134138 -0.219370
0.853729 -0.790950 -0.135448
0.544334 -1.081394 0.313873
-0.471973 -0.798051 -0.627853
-0.025057 -1.088976 -0.508167
-0.532914 -1.068041 -0.156580
-0.494833 0.549016 -0.197882
0.888990 -0.585818 0.446489
0.001215 -1.265586 0.083522
-0.854035 -0.564212 -0.314721
-0.387236 0.601760 0.335361
-0.804228 0.258573 0.251440
-0.452323 0.263260 0.759484
0.521473 0.265674 0.743845
0.074557 0.556598 0.624158
0.081800 0.065715 0.999582
0.496727 -0.785143 0.770684
0.594136 -0.258602 0.880032
0.067254 -0.551935 1.015358
-0.427277 -1.098513 0.378789
0.036476 -1.060449 0.665460
-0.475858 -0.736128 0.785010
-0.973601 -0.241356 0.109738
-0.827763 -0.740818 0.276966
-0.796980 -0.232308 0.626865
-0.374910 -0.233379 0.974072
0.582415 0.535664 0.272571
0.476778 0.566135 -0.262797
0.013024 0.528071 -0.549469
3 0 1 2
3 3 1 4
3 0 2 5
3 0 5 6
3 0 6 7
3 3 4 8
3 9 10 11
3 12 13 14
3 15 16 17
3 3 8 18
3 9 11 19
3 12 14 20
3 15 17 21
3 22 23 24
3 25 26 27
3 28 29 30
3 31 32 33
3 34 35 36
3 36 33 37
3 36 35 33
3 35 31 33
3 33 30 37
3 33 32 30
3 32 28 30
3 30 27 37
3 30 29 27
3 29 25 27
3 27 24 37
3 27 26 24
3 26 22 24
3 24 36 37
3 24 23 36
3 23 34 36
3 21 35 34
3 21 17 35
3 17 31 35
3 20 32 31
3 20 14 32
3 14 28 32
3 19 29 28
3 19 11 29
3 11 25 29
3 38 26 25
3 18 8 23
3 8 34 23
3 17 20 31
3 17 16 20
3 16 12 20
3 14 19 28
3 14 13 19
3 13 9 19
3 11 38 25
3 11 10 38
3 10 39 38
3 40 3 18
3 8 21 34
3 8 4 21
3 4 15 21
3 7 16 15
3 7 6 16
3 6 12 16
3 6 13 12
3 6 5 13
3 5 9 13
3 5 10 9
3 5 2 10
3 2 39 10
3 4 7 15
3 4 1 7
3 1 0 7
3 2 40 39
3 2 1 40
3 1 3 40
